<svg width="30" height="30" viewBox="0 0 30 30" fill="none" xmlns="http://www.w3.org/2000/svg">
<mask id="path-1-outside-1" maskUnits="userSpaceOnUse" x="0" y="0" width="30" height="30" fill="black">
<rect fill="white" width="30" height="30"/>
<path fill-rule="evenodd" clip-rule="evenodd" d="M15 29C7.268 29 1 22.732 1 15C1 7.268 7.268 1 15 1C22.732 1 29 7.268 29 15C29 22.732 22.732 29 15 29ZM15 2.33333C8.00467 2.33333 2.33333 8.00467 2.33333 15C2.33333 21.9953 8.00467 27.6667 15 27.6667C21.9953 27.6667 27.6667 21.9953 27.6667 15C27.6667 8.00467 21.9953 2.33333 15 2.33333ZM25.6667 15.6667H25C24.6313 15.6667 24.3333 15.3687 24.3333 15C24.3333 14.6313 24.6313 14.3333 25 14.3333H25.6667C26.0353 14.3333 26.3333 14.6313 26.3333 15C26.3333 15.3687 26.0353 15.6667 25.6667 15.6667ZM21.6527 21.136C21.6313 21.2613 21.576 21.3807 21.4787 21.4787C21.2733 21.6833 20.9707 21.7153 20.726 21.5933L20.7647 21.6327L20.77 21.638C20.662 21.5933 20.566 21.5513 20.4607 21.508C17.0013 20.0667 14.9853 18.9373 13.8827 18.216C13.0073 17.644 12.6993 17.3273 12.6867 17.314C12.6567 17.2853 11.028 15.706 8.36333 9.23067H8.364C8.364 9.23067 8.364 9.23067 8.36333 9.23067L8.408 9.27533C8.40133 9.262 8.4 9.24733 8.39467 9.234C8.33333 9.09267 8.32667 8.93867 8.36933 8.79333C8.39867 8.69533 8.44333 8.6 8.522 8.522C8.72133 8.32267 9.014 8.28867 9.256 8.40133C9.262 8.404 9.26933 8.40467 9.27467 8.408L9.25933 8.39133L9.23067 8.36333C9.23067 8.36333 9.23067 8.36333 9.23133 8.36333H9.23067C15.706 11.028 17.2853 12.6567 17.314 12.6867C17.344 12.7153 18.9727 14.2953 21.6373 20.77L21.6367 20.7693C21.6373 20.7693 21.6373 20.77 21.6373 20.77L21.608 20.7407L21.5927 20.726C21.608 20.7573 21.614 20.7907 21.6247 20.8233C21.6573 20.9253 21.6707 21.0313 21.6527 21.136ZM16.364 13.622C16.35 13.608 15.02 12.3373 10.2393 10.24C12.3367 15.0207 13.6093 16.3513 13.636 16.3787C13.65 16.3927 14.98 17.664 19.7607 19.7607C17.6633 14.9793 16.3907 13.6493 16.364 13.622ZM15 14.3333C15.3687 14.3333 15.6667 14.6313 15.6667 15C15.6667 15.3687 15.3687 15.6667 15 15.6667C14.6313 15.6667 14.3333 15.3687 14.3333 15C14.3333 14.6313 14.6313 14.3333 15 14.3333ZM15 5.66667C14.6313 5.66667 14.3333 5.368 14.3333 5V4.33333C14.3333 3.96533 14.6313 3.66667 15 3.66667C15.3687 3.66667 15.6667 3.96533 15.6667 4.33333V5C15.6667 5.368 15.3687 5.66667 15 5.66667ZM15 24.3333C15.3687 24.3333 15.6667 24.6313 15.6667 25V25.6667C15.6667 26.0353 15.3687 26.3333 15 26.3333C14.6313 26.3333 14.3333 26.0353 14.3333 25.6667V25C14.3333 24.6313 14.6313 24.3333 15 24.3333ZM5 15.6667H4.33333C3.96467 15.6667 3.66667 15.3687 3.66667 15C3.66667 14.6313 3.96467 14.3333 4.33333 14.3333H5C5.36867 14.3333 5.66667 14.6313 5.66667 15C5.66667 15.3687 5.36867 15.6667 5 15.6667Z"/>
</mask>
<path fill-rule="evenodd" clip-rule="evenodd" d="M15 29C7.268 29 1 22.732 1 15C1 7.268 7.268 1 15 1C22.732 1 29 7.268 29 15C29 22.732 22.732 29 15 29ZM15 2.33333C8.00467 2.33333 2.33333 8.00467 2.33333 15C2.33333 21.9953 8.00467 27.6667 15 27.6667C21.9953 27.6667 27.6667 21.9953 27.6667 15C27.6667 8.00467 21.9953 2.33333 15 2.33333ZM25.6667 15.6667H25C24.6313 15.6667 24.3333 15.3687 24.3333 15C24.3333 14.6313 24.6313 14.3333 25 14.3333H25.6667C26.0353 14.3333 26.3333 14.6313 26.3333 15C26.3333 15.3687 26.0353 15.6667 25.6667 15.6667ZM21.6527 21.136C21.6313 21.2613 21.576 21.3807 21.4787 21.4787C21.2733 21.6833 20.9707 21.7153 20.726 21.5933L20.7647 21.6327L20.77 21.638C20.662 21.5933 20.566 21.5513 20.4607 21.508C17.0013 20.0667 14.9853 18.9373 13.8827 18.216C13.0073 17.644 12.6993 17.3273 12.6867 17.314C12.6567 17.2853 11.028 15.706 8.36333 9.23067H8.364C8.364 9.23067 8.364 9.23067 8.36333 9.23067L8.408 9.27533C8.40133 9.262 8.4 9.24733 8.39467 9.234C8.33333 9.09267 8.32667 8.93867 8.36933 8.79333C8.39867 8.69533 8.44333 8.6 8.522 8.522C8.72133 8.32267 9.014 8.28867 9.256 8.40133C9.262 8.404 9.26933 8.40467 9.27467 8.408L9.25933 8.39133L9.23067 8.36333C9.23067 8.36333 9.23067 8.36333 9.23133 8.36333H9.23067C15.706 11.028 17.2853 12.6567 17.314 12.6867C17.344 12.7153 18.9727 14.2953 21.6373 20.77L21.6367 20.7693C21.6373 20.7693 21.6373 20.77 21.6373 20.77L21.608 20.7407L21.5927 20.726C21.608 20.7573 21.614 20.7907 21.6247 20.8233C21.6573 20.9253 21.6707 21.0313 21.6527 21.136ZM16.364 13.622C16.35 13.608 15.02 12.3373 10.2393 10.24C12.3367 15.0207 13.6093 16.3513 13.636 16.3787C13.65 16.3927 14.98 17.664 19.7607 19.7607C17.6633 14.9793 16.3907 13.6493 16.364 13.622ZM15 14.3333C15.3687 14.3333 15.6667 14.6313 15.6667 15C15.6667 15.3687 15.3687 15.6667 15 15.6667C14.6313 15.6667 14.3333 15.3687 14.3333 15C14.3333 14.6313 14.6313 14.3333 15 14.3333ZM15 5.66667C14.6313 5.66667 14.3333 5.368 14.3333 5V4.33333C14.3333 3.96533 14.6313 3.66667 15 3.66667C15.3687 3.66667 15.6667 3.96533 15.6667 4.33333V5C15.6667 5.368 15.3687 5.66667 15 5.66667ZM15 24.3333C15.3687 24.3333 15.6667 24.6313 15.6667 25V25.6667C15.6667 26.0353 15.3687 26.3333 15 26.3333C14.6313 26.3333 14.3333 26.0353 14.3333 25.6667V25C14.3333 24.6313 14.6313 24.3333 15 24.3333ZM5 15.6667H4.33333C3.96467 15.6667 3.66667 15.3687 3.66667 15C3.66667 14.6313 3.96467 14.3333 4.33333 14.3333H5C5.36867 14.3333 5.66667 14.6313 5.66667 15C5.66667 15.3687 5.36867 15.6667 5 15.6667Z" fill="#BC3331"/>
<path d="M21.6527 21.136L21.5541 21.1191L21.5541 21.1192L21.6527 21.136ZM21.4787 21.4787L21.5493 21.5495L21.5496 21.5491L21.4787 21.4787ZM20.726 21.5933L20.7706 21.5038L20.6547 21.6634L20.726 21.5933ZM20.7647 21.6327L20.6933 21.7028L20.694 21.7034L20.7647 21.6327ZM20.77 21.638L20.7318 21.7304L20.8407 21.5673L20.77 21.638ZM20.4607 21.508L20.4222 21.6003L20.4226 21.6005L20.4607 21.508ZM13.8827 18.216L13.9374 18.1323L13.9374 18.1323L13.8827 18.216ZM12.6867 17.314L12.7593 17.245L12.7558 17.2417L12.6867 17.314ZM8.36333 9.23067V9.13067H8.21405L8.27086 9.26872L8.36333 9.23067ZM8.36333 9.23067V9.13067H8.12191L8.29262 9.30138L8.36333 9.23067ZM8.408 9.27533L8.33729 9.34604L8.49744 9.23061L8.408 9.27533ZM8.39467 9.234L8.48755 9.19685L8.4864 9.19419L8.39467 9.234ZM8.36933 8.79333L8.27353 8.76466L8.27338 8.76516L8.36933 8.79333ZM8.522 8.522L8.59241 8.59301L8.59271 8.59271L8.522 8.522ZM9.256 8.40133L9.21379 8.492L9.21539 8.49271L9.256 8.40133ZM9.27467 8.408L9.22167 8.4928L9.34826 8.3403L9.27467 8.408ZM9.25933 8.39133L9.33303 8.32353L9.32921 8.3198L9.25933 8.39133ZM9.23067 8.36333V8.26333H8.98517L9.16079 8.43487L9.23067 8.36333ZM9.23067 8.36333V8.26333L9.19261 8.45581L9.23067 8.36333ZM17.314 12.6867L17.2416 12.7558L17.2449 12.759L17.314 12.6867ZM21.6373 20.77L21.5666 20.8407L21.7298 20.7319L21.6373 20.77ZM21.6367 20.7693V20.6693H21.3952L21.566 20.84L21.6367 20.7693ZM21.6373 20.77L21.5666 20.8407L21.7372 21.0113L21.7373 20.7701L21.6373 20.77ZM21.608 20.7407L21.6787 20.6699L21.6771 20.6684L21.608 20.7407ZM21.5927 20.726L21.6618 20.6537L21.5028 20.77L21.5927 20.726ZM21.6247 20.8233L21.7199 20.7928L21.7197 20.7923L21.6247 20.8233ZM16.364 13.622L16.4356 13.5522L16.4347 13.5513L16.364 13.622ZM10.2393 10.24L10.2795 10.1484L10.0448 10.0454L10.1478 10.2802L10.2393 10.24ZM13.636 16.3787L13.5644 16.4485L13.5653 16.4494L13.636 16.3787ZM19.7607 19.7607L19.7205 19.8522L19.9552 19.9552L19.8522 19.7205L19.7607 19.7607ZM15 28.9C7.32323 28.9 1.1 22.6768 1.1 15H0.9C0.9 22.7872 7.21277 29.1 15 29.1V28.9ZM1.1 15C1.1 7.32323 7.32323 1.1 15 1.1V0.9C7.21277 0.9 0.9 7.21277 0.9 15H1.1ZM15 1.1C22.6768 1.1 28.9 7.32323 28.9 15H29.1C29.1 7.21277 22.7872 0.9 15 0.9V1.1ZM28.9 15C28.9 22.6768 22.6768 28.9 15 28.9V29.1C22.7872 29.1 29.1 22.7872 29.1 15H28.9ZM15 2.23333C7.94944 2.23333 2.23333 7.94944 2.23333 15H2.43333C2.43333 8.0599 8.0599 2.43333 15 2.43333V2.23333ZM2.23333 15C2.23333 22.0506 7.94944 27.7667 15 27.7667V27.5667C8.0599 27.5667 2.43333 21.9401 2.43333 15H2.23333ZM15 27.7667C22.0506 27.7667 27.7667 22.0506 27.7667 15H27.5667C27.5667 21.9401 21.9401 27.5667 15 27.5667V27.7667ZM27.7667 15C27.7667 7.94944 22.0506 2.23333 15 2.23333V2.43333C21.9401 2.43333 27.5667 8.0599 27.5667 15H27.7667ZM25.6667 15.5667H25V15.7667H25.6667V15.5667ZM25 15.5667C24.6866 15.5667 24.4333 15.3134 24.4333 15H24.2333C24.2333 15.4239 24.5761 15.7667 25 15.7667V15.5667ZM24.4333 15C24.4333 14.6866 24.6866 14.4333 25 14.4333V14.2333C24.5761 14.2333 24.2333 14.5761 24.2333 15H24.4333ZM25 14.4333H25.6667V14.2333H25V14.4333ZM25.6667 14.4333C25.9801 14.4333 26.2333 14.6866 26.2333 15H26.4333C26.4333 14.5761 26.0906 14.2333 25.6667 14.2333V14.4333ZM26.2333 15C26.2333 15.3134 25.9801 15.5667 25.6667 15.5667V15.7667C26.0906 15.7667 26.4333 15.4239 26.4333 15H26.2333ZM21.5541 21.1192C21.5359 21.2263 21.4891 21.3262 21.4077 21.4082L21.5496 21.5491C21.6629 21.4351 21.7268 21.2964 21.7512 21.1528L21.5541 21.1192ZM21.4081 21.4078C21.2357 21.5796 20.9802 21.6084 20.7706 21.5038L20.6814 21.6828C20.9611 21.8223 21.3109 21.787 21.5493 21.5495L21.4081 21.4078ZM20.6547 21.6634L20.6934 21.7028L20.836 21.5626L20.7973 21.5232L20.6547 21.6634ZM20.694 21.7034L20.6993 21.7087L20.8407 21.5673L20.8354 21.562L20.694 21.7034ZM20.8082 21.5456C20.7081 21.5042 20.5986 21.4566 20.4987 21.4155L20.4226 21.6005C20.5334 21.646 20.6159 21.6825 20.7318 21.7304L20.8082 21.5456ZM20.4991 21.4157C17.0439 19.9761 15.0337 18.8495 13.9374 18.1323L13.8279 18.2997C14.937 19.0252 16.9588 20.1573 20.4222 21.6003L20.4991 21.4157ZM13.9374 18.1323C13.5023 17.848 13.2092 17.6278 13.0241 17.4778C12.9316 17.4028 12.866 17.3454 12.8232 17.3063C12.8018 17.2867 12.7861 17.2718 12.7756 17.2615C12.7703 17.2564 12.7663 17.2524 12.7636 17.2496C12.7622 17.2482 12.7611 17.2472 12.7604 17.2464C12.76 17.246 12.7597 17.2457 12.7595 17.2455C12.7594 17.2454 12.7593 17.2453 12.7593 17.2452C12.7592 17.2452 12.7592 17.2452 12.7592 17.2451C12.7592 17.2451 12.7592 17.2451 12.7592 17.2451L12.6142 17.3829C12.6334 17.4031 12.9478 17.7246 13.828 18.2997L13.9374 18.1323ZM12.7558 17.2417C12.74 17.2266 11.1179 15.6616 8.45581 9.19261L8.27086 9.26872C10.9381 15.7504 12.5733 17.344 12.6176 17.3863L12.7558 17.2417ZM8.36333 9.33067H8.364V9.13067H8.36333V9.33067ZM8.364 9.23067C8.364 9.33067 8.364 9.23067 8.364 9.13067H8.364C8.364 9.13067 8.364 9.13067 8.364 9.13067H8.364H8.364H8.364C8.364 9.13067 8.364 9.13067 8.364 9.13067C8.364 9.13067 8.364 9.13067 8.364 9.13067H8.364C8.364 9.13067 8.364 9.13067 8.364 9.13067H8.364C8.364 9.13067 8.364 9.13067 8.36399 9.13067C8.36399 9.13067 8.36399 9.13067 8.36399 9.13067C8.36399 9.13067 8.36399 9.13067 8.36399 9.13067H8.36399C8.36399 9.13067 8.36399 9.13067 8.36399 9.13067C8.36399 9.13067 8.36399 9.13067 8.36399 9.13067C8.36399 9.13067 8.36399 9.13067 8.36399 9.13067H8.36399H8.36399C8.36399 9.13067 8.36399 9.13067 8.36399 9.13067C8.36399 9.13067 8.36399 9.13067 8.36399 9.13067C8.36399 9.13067 8.36399 9.13067 8.36399 9.13067C8.36399 9.13067 8.36399 9.13067 8.36399 9.13067H8.36399H8.36399C8.36399 9.13067 8.36399 9.13067 8.36399 9.13067C8.36399 9.13067 8.36399 9.13067 8.36399 9.13067H8.36399C8.36399 9.13067 8.36399 9.13067 8.36399 9.13067C8.36399 9.13067 8.36399 9.13067 8.36399 9.13067H8.36399C8.36398 9.13067 8.36398 9.13067 8.36398 9.13067H8.36398C8.36398 9.13067 8.36398 9.13067 8.36398 9.13067H8.36398C8.36398 9.13067 8.36398 9.13067 8.36398 9.13067C8.36398 9.13067 8.36398 9.13067 8.36398 9.13067H8.36398C8.36398 9.13067 8.36398 9.13067 8.36398 9.13067C8.36398 9.13067 8.36398 9.13067 8.36398 9.13067H8.36398C8.36398 9.13067 8.36398 9.13067 8.36398 9.13067C8.36398 9.13067 8.36398 9.13067 8.36398 9.13067H8.36398H8.36398C8.36398 9.13067 8.36398 9.13067 8.36398 9.13067C8.36398 9.13067 8.36398 9.13067 8.36398 9.13067C8.36398 9.13067 8.36398 9.13067 8.36398 9.13067H8.36398H8.36398H8.36398C8.36398 9.13067 8.36398 9.13067 8.36398 9.13067C8.36398 9.13067 8.36398 9.13067 8.36397 9.13067C8.36397 9.13067 8.36397 9.13067 8.36397 9.13067C8.36397 9.13067 8.36397 9.13067 8.36397 9.13067C8.36397 9.13067 8.36397 9.13067 8.36397 9.13067C8.36397 9.13067 8.36397 9.13067 8.36397 9.13067C8.36397 9.13067 8.36397 9.13067 8.36397 9.13067C8.36397 9.13067 8.36397 9.13067 8.36397 9.13067C8.36397 9.13067 8.36397 9.13067 8.36397 9.13067C8.36397 9.13067 8.36397 9.13067 8.36397 9.13067C8.36397 9.13067 8.36397 9.13067 8.36397 9.13067C8.36397 9.13067 8.36397 9.13067 8.36397 9.13067C8.36397 9.13067 8.36397 9.13067 8.36397 9.13067C8.36397 9.13067 8.36397 9.13067 8.36397 9.13067C8.36397 9.13067 8.36397 9.13067 8.36397 9.13067C8.36397 9.13067 8.36397 9.13067 8.36397 9.13067C8.36397 9.13067 8.36397 9.13067 8.36397 9.13067H8.36397H8.36397H8.36397C8.36397 9.13067 8.36397 9.13067 8.36397 9.13067C8.36396 9.13067 8.36396 9.13067 8.36396 9.13067C8.36396 9.13067 8.36396 9.13067 8.36396 9.13067C8.36396 9.13067 8.36396 9.13067 8.36396 9.13067H8.36396H8.36396C8.36396 9.13067 8.36396 9.13067 8.36396 9.13067C8.36396 9.13067 8.36396 9.13067 8.36396 9.13067H8.36396H8.36396C8.36396 9.13067 8.36396 9.13067 8.36396 9.13067C8.36396 9.13067 8.36396 9.13067 8.36396 9.13067H8.36396H8.36396C8.36396 9.13067 8.36396 9.13067 8.36396 9.13067H8.36396H8.36396C8.36396 9.13067 8.36396 9.13067 8.36395 9.13067H8.36395C8.36395 9.13067 8.36395 9.13067 8.36395 9.13067C8.36395 9.13067 8.36395 9.13067 8.36395 9.13067H8.36395C8.36395 9.13067 8.36395 9.13067 8.36395 9.13067H8.36395C8.36395 9.13067 8.36395 9.13067 8.36395 9.13067H8.36395C8.36395 9.13067 8.36395 9.13067 8.36395 9.13067C8.36395 9.13067 8.36395 9.13067 8.36395 9.13067H8.36395C8.36395 9.13067 8.36395 9.13067 8.36395 9.13067C8.36395 9.13067 8.36395 9.13067 8.36395 9.13067H8.36395C8.36394 9.13067 8.36394 9.13067 8.36394 9.13067H8.36394C8.36394 9.13067 8.36394 9.13067 8.36394 9.13067H8.36394C8.36394 9.13067 8.36394 9.13067 8.36394 9.13067C8.36394 9.13067 8.36394 9.13067 8.36394 9.13067H8.36394C8.36394 9.13067 8.36394 9.13067 8.36394 9.13067C8.36394 9.13067 8.36394 9.13067 8.36394 9.13067H8.36394C8.36394 9.13067 8.36394 9.13067 8.36394 9.13067C8.36394 9.13067 8.36394 9.13067 8.36394 9.13067H8.36393C8.36393 9.13067 8.36393 9.13067 8.36393 9.13067C8.36393 9.13067 8.36393 9.13067 8.36393 9.13067C8.36393 9.13067 8.36393 9.13067 8.36393 9.13067C8.36393 9.13067 8.36393 9.13067 8.36393 9.13067H8.36393C8.36393 9.13067 8.36393 9.13067 8.36393 9.13067C8.36393 9.13067 8.36393 9.13067 8.36393 9.13067C8.36393 9.13067 8.36393 9.13067 8.36393 9.13067C8.36393 9.13067 8.36393 9.13067 8.36393 9.13067C8.36393 9.13067 8.36393 9.13067 8.36393 9.13067H8.36393C8.36392 9.13067 8.36392 9.13067 8.36392 9.13067C8.36392 9.13067 8.36392 9.13067 8.36392 9.13067C8.36392 9.13067 8.36392 9.13067 8.36392 9.13067C8.36392 9.13067 8.36392 9.13067 8.36392 9.13067C8.36392 9.13067 8.36392 9.13067 8.36392 9.13067C8.36392 9.13067 8.36392 9.13067 8.36392 9.13067C8.36392 9.13067 8.36392 9.13067 8.36392 9.13067C8.36392 9.13067 8.36392 9.13067 8.36392 9.13067C8.36392 9.13067 8.36392 9.13067 8.36392 9.13067C8.36392 9.13067 8.36392 9.13067 8.36392 9.13067C8.36392 9.13067 8.36391 9.13067 8.36391 9.13067C8.36391 9.13067 8.36391 9.13067 8.36391 9.13067C8.36391 9.13067 8.36391 9.13067 8.36391 9.13067C8.36391 9.13067 8.36391 9.13067 8.36391 9.13067C8.36391 9.13067 8.36391 9.13067 8.36391 9.13067C8.36391 9.13067 8.36391 9.13067 8.36391 9.13067C8.36391 9.13067 8.36391 9.13067 8.36391 9.13067C8.36391 9.13067 8.36391 9.13067 8.36391 9.13067C8.36391 9.13067 8.36391 9.13067 8.36391 9.13067C8.36391 9.13067 8.36391 9.13067 8.36391 9.13067C8.36391 9.13067 8.3639 9.13067 8.3639 9.13067C8.3639 9.13067 8.3639 9.13067 8.3639 9.13067C8.3639 9.13067 8.3639 9.13067 8.3639 9.13067C8.3639 9.13067 8.3639 9.13067 8.3639 9.13067C8.3639 9.13067 8.3639 9.13067 8.3639 9.13067C8.3639 9.13067 8.3639 9.13067 8.3639 9.13067C8.3639 9.13067 8.3639 9.13067 8.3639 9.13067C8.3639 9.13067 8.3639 9.13067 8.3639 9.13067C8.3639 9.13067 8.3639 9.13067 8.3639 9.13067C8.3639 9.13067 8.36389 9.13067 8.36389 9.13067C8.36389 9.13067 8.36389 9.13067 8.36389 9.13067C8.36389 9.13067 8.36389 9.13067 8.36389 9.13067C8.36389 9.13067 8.36389 9.13067 8.36389 9.13067C8.36389 9.13067 8.36389 9.13067 8.36389 9.13067C8.36389 9.13067 8.36389 9.13067 8.36389 9.13067C8.36389 9.13067 8.36389 9.13067 8.36389 9.13067C8.36389 9.13067 8.36389 9.13067 8.36389 9.13067C8.36389 9.13067 8.36389 9.13067 8.36388 9.13067C8.36388 9.13067 8.36388 9.13067 8.36388 9.13067C8.36388 9.13067 8.36388 9.13067 8.36388 9.13067C8.36388 9.13067 8.36388 9.13067 8.36388 9.13067C8.36388 9.13067 8.36388 9.13067 8.36388 9.13067C8.36388 9.13067 8.36388 9.13067 8.36388 9.13067C8.36388 9.13067 8.36388 9.13067 8.36388 9.13067C8.36388 9.13067 8.36388 9.13067 8.36388 9.13067C8.36388 9.13067 8.36388 9.13067 8.36388 9.13067C8.36387 9.13067 8.36387 9.13067 8.36387 9.13067C8.36387 9.13067 8.36387 9.13067 8.36387 9.13067C8.36387 9.13067 8.36387 9.13067 8.36387 9.13067C8.36387 9.13067 8.36387 9.13067 8.36387 9.13067C8.36387 9.13067 8.36387 9.13067 8.36387 9.13067C8.36387 9.13067 8.36387 9.13067 8.36387 9.13067C8.36387 9.13067 8.36387 9.13067 8.36387 9.13067C8.36387 9.13067 8.36386 9.13067 8.36386 9.13067C8.36386 9.13067 8.36386 9.13067 8.36386 9.13067C8.36386 9.13067 8.36386 9.13067 8.36386 9.13067C8.36386 9.13067 8.36386 9.13067 8.36386 9.13067C8.36386 9.13067 8.36386 9.13067 8.36386 9.13067C8.36386 9.13067 8.36386 9.13067 8.36386 9.13067C8.36386 9.13067 8.36386 9.13067 8.36386 9.13067C8.36386 9.13067 8.36386 9.13067 8.36385 9.13067C8.36385 9.13067 8.36385 9.13067 8.36385 9.13067C8.36385 9.13067 8.36385 9.13067 8.36385 9.13067C8.36385 9.13067 8.36385 9.13067 8.36385 9.13067C8.36385 9.13067 8.36385 9.13067 8.36385 9.13067C8.36385 9.13067 8.36385 9.13067 8.36385 9.13067C8.36385 9.13067 8.36385 9.13067 8.36385 9.13067C8.36385 9.13067 8.36385 9.13067 8.36384 9.13067C8.36384 9.13067 8.36384 9.13067 8.36384 9.13067C8.36384 9.13067 8.36384 9.13067 8.36384 9.13067C8.36384 9.13067 8.36384 9.13067 8.36384 9.13067C8.36384 9.13067 8.36384 9.13067 8.36384 9.13067C8.36384 9.13067 8.36384 9.13067 8.36384 9.13067C8.36384 9.13067 8.36384 9.13067 8.36384 9.13067C8.36384 9.13067 8.36383 9.13067 8.36383 9.13067C8.36383 9.13067 8.36383 9.13067 8.36383 9.13067C8.36383 9.13067 8.36383 9.13067 8.36383 9.13067C8.36383 9.13067 8.36383 9.13067 8.36383 9.13067C8.36383 9.13067 8.36383 9.13067 8.36383 9.13067C8.36383 9.13067 8.36383 9.13067 8.36383 9.13067C8.36383 9.13067 8.36383 9.13067 8.36382 9.13067C8.36382 9.13067 8.36382 9.13067 8.36382 9.13067C8.36382 9.13067 8.36382 9.13067 8.36382 9.13067C8.36382 9.13067 8.36382 9.13067 8.36382 9.13067C8.36382 9.13067 8.36382 9.13067 8.36382 9.13067C8.36382 9.13067 8.36382 9.13067 8.36382 9.13067C8.36382 9.13067 8.36382 9.13067 8.36382 9.13067C8.36381 9.13067 8.36381 9.13067 8.36381 9.13067C8.36381 9.13067 8.36381 9.13067 8.36381 9.13067C8.36381 9.13067 8.36381 9.13067 8.36381 9.13067C8.36381 9.13067 8.36381 9.13067 8.36381 9.13067C8.36381 9.13067 8.36381 9.13067 8.36381 9.13067C8.36381 9.13067 8.36381 9.13067 8.3638 9.13067C8.3638 9.13067 8.3638 9.13067 8.3638 9.13067C8.3638 9.13067 8.3638 9.13067 8.3638 9.13067C8.3638 9.13067 8.3638 9.13067 8.3638 9.13067C8.3638 9.13067 8.3638 9.13067 8.3638 9.13067C8.3638 9.13067 8.3638 9.13067 8.3638 9.13067C8.3638 9.13067 8.36379 9.13067 8.36379 9.13067C8.36379 9.13067 8.36379 9.13067 8.36379 9.13067C8.36379 9.13067 8.36379 9.13067 8.36379 9.13067C8.36379 9.13067 8.36379 9.13067 8.36379 9.13067C8.36379 9.13067 8.36379 9.13067 8.36379 9.13067C8.36379 9.13067 8.36379 9.13067 8.36379 9.13067C8.36378 9.13067 8.36378 9.13067 8.36378 9.13067C8.36378 9.13067 8.36378 9.13067 8.36378 9.13067C8.36378 9.13067 8.36378 9.13067 8.36378 9.13067C8.36378 9.13067 8.36378 9.13067 8.36378 9.13067C8.36378 9.13067 8.36378 9.13067 8.36378 9.13067C8.36378 9.13067 8.36377 9.13067 8.36377 9.13067C8.36377 9.13067 8.36377 9.13067 8.36377 9.13067C8.36377 9.13067 8.36377 9.13067 8.36377 9.13067C8.36377 9.13067 8.36377 9.13067 8.36377 9.13067C8.36377 9.13067 8.36377 9.13067 8.36377 9.13067C8.36377 9.13067 8.36377 9.13067 8.36376 9.13067C8.36376 9.13067 8.36376 9.13067 8.36376 9.13067C8.36376 9.13067 8.36376 9.13067 8.36376 9.13067C8.36376 9.13067 8.36376 9.13067 8.36376 9.13067C8.36376 9.13067 8.36376 9.13067 8.36376 9.13067C8.36376 9.13067 8.36376 9.13067 8.36375 9.13067C8.36375 9.13067 8.36375 9.13067 8.36375 9.13067C8.36375 9.13067 8.36375 9.13067 8.36375 9.13067C8.36375 9.13067 8.36375 9.13067 8.36375 9.13067C8.36375 9.13067 8.36375 9.13067 8.36375 9.13067C8.36375 9.13067 8.36375 9.13067 8.36374 9.13067C8.36374 9.13067 8.36374 9.13067 8.36374 9.13067C8.36374 9.13067 8.36374 9.13067 8.36374 9.13067C8.36374 9.13067 8.36374 9.13067 8.36374 9.13067C8.36374 9.13067 8.36374 9.13067 8.36374 9.13067C8.36374 9.13067 8.36373 9.13067 8.36373 9.13067C8.36373 9.13067 8.36373 9.13067 8.36373 9.13067C8.36373 9.13067 8.36373 9.13067 8.36373 9.13067C8.36373 9.13067 8.36373 9.13067 8.36373 9.13067C8.36373 9.13067 8.36373 9.13067 8.36373 9.13067C8.36372 9.13067 8.36372 9.13067 8.36372 9.13067C8.36372 9.13067 8.36372 9.13067 8.36372 9.13067C8.36372 9.13067 8.36372 9.13067 8.36372 9.13067C8.36372 9.13067 8.36372 9.13067 8.36372 9.13067C8.36372 9.13067 8.36372 9.13067 8.36371 9.13067C8.36371 9.13067 8.36371 9.13067 8.36371 9.13067C8.36371 9.13067 8.36371 9.13067 8.36371 9.13067C8.36371 9.13067 8.36371 9.13067 8.36371 9.13067C8.36371 9.13067 8.36371 9.13067 8.36371 9.13067C8.3637 9.13067 8.3637 9.13067 8.3637 9.13067C8.3637 9.13067 8.3637 9.13067 8.3637 9.13067C8.3637 9.13067 8.3637 9.13067 8.3637 9.13067C8.3637 9.13067 8.3637 9.13067 8.3637 9.13067C8.3637 9.13067 8.36369 9.13067 8.36369 9.13067C8.36369 9.13067 8.36369 9.13067 8.36369 9.13067C8.36369 9.13067 8.36369 9.13067 8.36369 9.13067C8.36369 9.13067 8.36369 9.13067 8.36369 9.13067C8.36369 9.13067 8.36369 9.13067 8.36368 9.13067C8.36368 9.13067 8.36368 9.13067 8.36368 9.13067C8.36368 9.13067 8.36368 9.13067 8.36368 9.13067C8.36368 9.13067 8.36368 9.13067 8.36368 9.13067C8.36368 9.13067 8.36368 9.13067 8.36368 9.13067C8.36367 9.13067 8.36367 9.13067 8.36367 9.13067C8.36367 9.13067 8.36367 9.13067 8.36367 9.13067C8.36367 9.13067 8.36367 9.13067 8.36367 9.13067C8.36367 9.13067 8.36367 9.13067 8.36367 9.13067C8.36366 9.13067 8.36366 9.13067 8.36366 9.13067C8.36366 9.13067 8.36366 9.13067 8.36366 9.13067C8.36366 9.13067 8.36366 9.13067 8.36366 9.13067C8.36366 9.13067 8.36366 9.13067 8.36366 9.13067C8.36365 9.13067 8.36365 9.13067 8.36365 9.13067C8.36365 9.13067 8.36365 9.13067 8.36365 9.13067C8.36365 9.13067 8.36365 9.13067 8.36365 9.13067C8.36365 9.13067 8.36365 9.13067 8.36365 9.13067C8.36364 9.13067 8.36364 9.13067 8.36364 9.13067C8.36364 9.13067 8.36364 9.13067 8.36364 9.13067C8.36364 9.13067 8.36364 9.13067 8.36364 9.13067C8.36364 9.13067 8.36364 9.13067 8.36364 9.13067C8.36363 9.13067 8.36363 9.13067 8.36363 9.13067C8.36363 9.13067 8.36363 9.13067 8.36363 9.13067C8.36363 9.13067 8.36363 9.13067 8.36363 9.13067C8.36363 9.13067 8.36363 9.13067 8.36362 9.13067C8.36362 9.13067 8.36362 9.13067 8.36362 9.13067C8.36362 9.13067 8.36362 9.13067 8.36362 9.13067C8.36362 9.13067 8.36362 9.13067 8.36362 9.13067C8.36362 9.13067 8.36361 9.13067 8.36361 9.13067C8.36361 9.13067 8.36361 9.13067 8.36361 9.13067C8.36361 9.13067 8.36361 9.13067 8.36361 9.13067C8.36361 9.13067 8.36361 9.13067 8.36361 9.13067C8.3636 9.13067 8.3636 9.13067 8.3636 9.13067C8.3636 9.13067 8.3636 9.13067 8.3636 9.13067C8.3636 9.13067 8.3636 9.13067 8.3636 9.13067C8.3636 9.13067 8.3636 9.13067 8.36359 9.13067C8.36359 9.13067 8.36359 9.13067 8.36359 9.13067C8.36359 9.13067 8.36359 9.13067 8.36359 9.13067C8.36359 9.13067 8.36359 9.13067 8.36359 9.13067C8.36358 9.13067 8.36358 9.13067 8.36358 9.13067C8.36358 9.13067 8.36358 9.13067 8.36358 9.13067C8.36358 9.13067 8.36358 9.13067 8.36358 9.13067C8.36358 9.13067 8.36357 9.13067 8.36357 9.13067C8.36357 9.13067 8.36357 9.13067 8.36357 9.13067C8.36357 9.13067 8.36357 9.13067 8.36357 9.13067C8.36357 9.13067 8.36357 9.13067 8.36357 9.13067C8.36356 9.13067 8.36356 9.13067 8.36356 9.13067C8.36356 9.13067 8.36356 9.13067 8.36356 9.13067C8.36356 9.13067 8.36356 9.13067 8.36356 9.13067C8.36356 9.13067 8.36355 9.13067 8.36355 9.13067C8.36355 9.13067 8.36355 9.13067 8.36355 9.13067C8.36355 9.13067 8.36355 9.13067 8.36355 9.13067C8.36355 9.13067 8.36355 9.13067 8.36354 9.13067C8.36354 9.13067 8.36354 9.13067 8.36354 9.13067C8.36354 9.13067 8.36354 9.13067 8.36354 9.13067C8.36354 9.13067 8.36354 9.13067 8.36354 9.13067C8.36353 9.13067 8.36353 9.13067 8.36353 9.13067C8.36353 9.13067 8.36353 9.13067 8.36353 9.13067C8.36353 9.13067 8.36353 9.13067 8.36353 9.13067C8.36352 9.13067 8.36352 9.13067 8.36352 9.13067C8.36352 9.13067 8.36352 9.13067 8.36352 9.13067C8.36352 9.13067 8.36352 9.13067 8.36352 9.13067C8.36352 9.13067 8.36351 9.13067 8.36351 9.13067C8.36351 9.13067 8.36351 9.13067 8.36351 9.13067C8.36351 9.13067 8.36351 9.13067 8.36351 9.13067C8.36351 9.13067 8.36351 9.13067 8.3635 9.13067C8.3635 9.13067 8.3635 9.13067 8.3635 9.13067C8.3635 9.13067 8.3635 9.13067 8.3635 9.13067C8.3635 9.13067 8.3635 9.13067 8.36349 9.13067C8.36349 9.13067 8.36349 9.13067 8.36349 9.13067C8.36349 9.13067 8.36349 9.13067 8.36349 9.13067C8.36349 9.13067 8.36349 9.13067 8.36348 9.13067C8.36348 9.13067 8.36348 9.13067 8.36348 9.13067C8.36348 9.13067 8.36348 9.13067 8.36348 9.13067C8.36348 9.13067 8.36348 9.13067 8.36347 9.13067C8.36347 9.13067 8.36347 9.13067 8.36347 9.13067C8.36347 9.13067 8.36347 9.13067 8.36347 9.13067C8.36347 9.13067 8.36347 9.13067 8.36346 9.13067C8.36346 9.13067 8.36346 9.13067 8.36346 9.13067C8.36346 9.13067 8.36346 9.13067 8.36346 9.13067C8.36346 9.13067 8.36346 9.13067 8.36345 9.13067C8.36345 9.13067 8.36345 9.13067 8.36345 9.13067C8.36345 9.13067 8.36345 9.13067 8.36345 9.13067C8.36345 9.13067 8.36345 9.13067 8.36344 9.13067C8.36344 9.13067 8.36344 9.13067 8.36344 9.13067C8.36344 9.13067 8.36344 9.13067 8.36344 9.13067C8.36344 9.13067 8.36343 9.13067 8.36343 9.13067C8.36343 9.13067 8.36343 9.13067 8.36343 9.13067C8.36343 9.13067 8.36343 9.13067 8.36343 9.13067C8.36343 9.13067 8.36342 9.13067 8.36342 9.13067C8.36342 9.13067 8.36342 9.13067 8.36342 9.13067C8.36342 9.13067 8.36342 9.13067 8.36342 9.13067C8.36341 9.13067 8.36341 9.13067 8.36341 9.13067C8.36341 9.13067 8.36341 9.13067 8.36341 9.13067C8.36341 9.13067 8.36341 9.13067 8.36341 9.13067C8.3634 9.13067 8.3634 9.13067 8.3634 9.13067C8.3634 9.13067 8.3634 9.13067 8.3634 9.13067C8.3634 9.13067 8.3634 9.13067 8.36339 9.13067C8.36339 9.13067 8.36339 9.13067 8.36339 9.13067C8.36339 9.13067 8.36339 9.13067 8.36339 9.13067C8.36339 9.13067 8.36338 9.13067 8.36338 9.13067C8.36338 9.13067 8.36338 9.13067 8.36338 9.13067C8.36338 9.13067 8.36338 9.13067 8.36338 9.13067C8.36337 9.13067 8.36337 9.13067 8.36337 9.13067C8.36337 9.13067 8.36337 9.13067 8.36337 9.13067C8.36337 9.13067 8.36337 9.13067 8.36336 9.13067C8.36336 9.13067 8.36336 9.13067 8.36336 9.13067C8.36336 9.13067 8.36336 9.13067 8.36336 9.13067C8.36336 9.13067 8.36335 9.13067 8.36335 9.13067C8.36335 9.13067 8.36335 9.13067 8.36335 9.13067C8.36335 9.13067 8.36335 9.13067 8.36335 9.13067C8.36334 9.13067 8.36334 9.13067 8.36334 9.13067C8.36334 9.13067 8.36334 9.13067 8.36334 9.13067C8.36334 9.13067 8.36334 9.13067 8.36333 9.13067V9.33067C8.36334 9.33067 8.36334 9.33067 8.36334 9.33067C8.36334 9.33067 8.36334 9.33067 8.36334 9.33067C8.36334 9.33067 8.36334 9.33067 8.36335 9.33067C8.36335 9.33067 8.36335 9.33067 8.36335 9.33067C8.36335 9.33067 8.36335 9.33067 8.36335 9.33067C8.36335 9.33067 8.36336 9.33067 8.36336 9.33067C8.36336 9.33067 8.36336 9.33067 8.36336 9.33067C8.36336 9.33067 8.36336 9.33067 8.36336 9.33067C8.36337 9.33067 8.36337 9.33067 8.36337 9.33067C8.36337 9.33067 8.36337 9.33067 8.36337 9.33067C8.36337 9.33067 8.36337 9.33067 8.36338 9.33067C8.36338 9.33067 8.36338 9.33067 8.36338 9.33067C8.36338 9.33067 8.36338 9.33067 8.36338 9.33067C8.36338 9.33067 8.36339 9.33067 8.36339 9.33067C8.36339 9.33067 8.36339 9.33067 8.36339 9.33067C8.36339 9.33067 8.36339 9.33067 8.36339 9.33067C8.3634 9.33067 8.3634 9.33067 8.3634 9.33067C8.3634 9.33067 8.3634 9.33067 8.3634 9.33067C8.3634 9.33067 8.3634 9.33067 8.36341 9.33067C8.36341 9.33067 8.36341 9.33067 8.36341 9.33067C8.36341 9.33067 8.36341 9.33067 8.36341 9.33067C8.36341 9.33067 8.36341 9.33067 8.36342 9.33067C8.36342 9.33067 8.36342 9.33067 8.36342 9.33067C8.36342 9.33067 8.36342 9.33067 8.36342 9.33067C8.36342 9.33067 8.36343 9.33067 8.36343 9.33067C8.36343 9.33067 8.36343 9.33067 8.36343 9.33067C8.36343 9.33067 8.36343 9.33067 8.36343 9.33067C8.36343 9.33067 8.36344 9.33067 8.36344 9.33067C8.36344 9.33067 8.36344 9.33067 8.36344 9.33067C8.36344 9.33067 8.36344 9.33067 8.36344 9.33067C8.36345 9.33067 8.36345 9.33067 8.36345 9.33067C8.36345 9.33067 8.36345 9.33067 8.36345 9.33067C8.36345 9.33067 8.36345 9.33067 8.36345 9.33067C8.36346 9.33067 8.36346 9.33067 8.36346 9.33067C8.36346 9.33067 8.36346 9.33067 8.36346 9.33067C8.36346 9.33067 8.36346 9.33067 8.36346 9.33067C8.36347 9.33067 8.36347 9.33067 8.36347 9.33067C8.36347 9.33067 8.36347 9.33067 8.36347 9.33067C8.36347 9.33067 8.36347 9.33067 8.36347 9.33067C8.36348 9.33067 8.36348 9.33067 8.36348 9.33067C8.36348 9.33067 8.36348 9.33067 8.36348 9.33067C8.36348 9.33067 8.36348 9.33067 8.36348 9.33067C8.36349 9.33067 8.36349 9.33067 8.36349 9.33067C8.36349 9.33067 8.36349 9.33067 8.36349 9.33067C8.36349 9.33067 8.36349 9.33067 8.36349 9.33067C8.3635 9.33067 8.3635 9.33067 8.3635 9.33067C8.3635 9.33067 8.3635 9.33067 8.3635 9.33067C8.3635 9.33067 8.3635 9.33067 8.3635 9.33067C8.36351 9.33067 8.36351 9.33067 8.36351 9.33067C8.36351 9.33067 8.36351 9.33067 8.36351 9.33067C8.36351 9.33067 8.36351 9.33067 8.36351 9.33067C8.36351 9.33067 8.36352 9.33067 8.36352 9.33067C8.36352 9.33067 8.36352 9.33067 8.36352 9.33067C8.36352 9.33067 8.36352 9.33067 8.36352 9.33067C8.36352 9.33067 8.36352 9.33067 8.36353 9.33067C8.36353 9.33067 8.36353 9.33067 8.36353 9.33067C8.36353 9.33067 8.36353 9.33067 8.36353 9.33067C8.36353 9.33067 8.36353 9.33067 8.36354 9.33067C8.36354 9.33067 8.36354 9.33067 8.36354 9.33067C8.36354 9.33067 8.36354 9.33067 8.36354 9.33067C8.36354 9.33067 8.36354 9.33067 8.36354 9.33067C8.36355 9.33067 8.36355 9.33067 8.36355 9.33067C8.36355 9.33067 8.36355 9.33067 8.36355 9.33067C8.36355 9.33067 8.36355 9.33067 8.36355 9.33067C8.36355 9.33067 8.36356 9.33067 8.36356 9.33067C8.36356 9.33067 8.36356 9.33067 8.36356 9.33067C8.36356 9.33067 8.36356 9.33067 8.36356 9.33067C8.36356 9.33067 8.36356 9.33067 8.36357 9.33067C8.36357 9.33067 8.36357 9.33067 8.36357 9.33067C8.36357 9.33067 8.36357 9.33067 8.36357 9.33067C8.36357 9.33067 8.36357 9.33067 8.36357 9.33067C8.36357 9.33067 8.36358 9.33067 8.36358 9.33067C8.36358 9.33067 8.36358 9.33067 8.36358 9.33067C8.36358 9.33067 8.36358 9.33067 8.36358 9.33067C8.36358 9.33067 8.36358 9.33067 8.36359 9.33067C8.36359 9.33067 8.36359 9.33067 8.36359 9.33067C8.36359 9.33067 8.36359 9.33067 8.36359 9.33067C8.36359 9.33067 8.36359 9.33067 8.36359 9.33067C8.3636 9.33067 8.3636 9.33067 8.3636 9.33067C8.3636 9.33067 8.3636 9.33067 8.3636 9.33067C8.3636 9.33067 8.3636 9.33067 8.3636 9.33067C8.3636 9.33067 8.3636 9.33067 8.36361 9.33067C8.36361 9.33067 8.36361 9.33067 8.36361 9.33067C8.36361 9.33067 8.36361 9.33067 8.36361 9.33067C8.36361 9.33067 8.36361 9.33067 8.36361 9.33067C8.36361 9.33067 8.36362 9.33067 8.36362 9.33067C8.36362 9.33067 8.36362 9.33067 8.36362 9.33067C8.36362 9.33067 8.36362 9.33067 8.36362 9.33067C8.36362 9.33067 8.36362 9.33067 8.36362 9.33067C8.36363 9.33067 8.36363 9.33067 8.36363 9.33067C8.36363 9.33067 8.36363 9.33067 8.36363 9.33067C8.36363 9.33067 8.36363 9.33067 8.36363 9.33067C8.36363 9.33067 8.36363 9.33067 8.36364 9.33067C8.36364 9.33067 8.36364 9.33067 8.36364 9.33067C8.36364 9.33067 8.36364 9.33067 8.36364 9.33067C8.36364 9.33067 8.36364 9.33067 8.36364 9.33067C8.36364 9.33067 8.36364 9.33067 8.36365 9.33067C8.36365 9.33067 8.36365 9.33067 8.36365 9.33067C8.36365 9.33067 8.36365 9.33067 8.36365 9.33067C8.36365 9.33067 8.36365 9.33067 8.36365 9.33067C8.36365 9.33067 8.36365 9.33067 8.36366 9.33067C8.36366 9.33067 8.36366 9.33067 8.36366 9.33067C8.36366 9.33067 8.36366 9.33067 8.36366 9.33067C8.36366 9.33067 8.36366 9.33067 8.36366 9.33067C8.36366 9.33067 8.36366 9.33067 8.36367 9.33067C8.36367 9.33067 8.36367 9.33067 8.36367 9.33067C8.36367 9.33067 8.36367 9.33067 8.36367 9.33067C8.36367 9.33067 8.36367 9.33067 8.36367 9.33067C8.36367 9.33067 8.36367 9.33067 8.36368 9.33067C8.36368 9.33067 8.36368 9.33067 8.36368 9.33067C8.36368 9.33067 8.36368 9.33067 8.36368 9.33067C8.36368 9.33067 8.36368 9.33067 8.36368 9.33067C8.36368 9.33067 8.36368 9.33067 8.36368 9.33067C8.36369 9.33067 8.36369 9.33067 8.36369 9.33067C8.36369 9.33067 8.36369 9.33067 8.36369 9.33067C8.36369 9.33067 8.36369 9.33067 8.36369 9.33067C8.36369 9.33067 8.36369 9.33067 8.36369 9.33067C8.36369 9.33067 8.3637 9.33067 8.3637 9.33067C8.3637 9.33067 8.3637 9.33067 8.3637 9.33067C8.3637 9.33067 8.3637 9.33067 8.3637 9.33067C8.3637 9.33067 8.3637 9.33067 8.3637 9.33067C8.3637 9.33067 8.3637 9.33067 8.36371 9.33067C8.36371 9.33067 8.36371 9.33067 8.36371 9.33067C8.36371 9.33067 8.36371 9.33067 8.36371 9.33067C8.36371 9.33067 8.36371 9.33067 8.36371 9.33067C8.36371 9.33067 8.36371 9.33067 8.36371 9.33067C8.36372 9.33067 8.36372 9.33067 8.36372 9.33067C8.36372 9.33067 8.36372 9.33067 8.36372 9.33067C8.36372 9.33067 8.36372 9.33067 8.36372 9.33067C8.36372 9.33067 8.36372 9.33067 8.36372 9.33067C8.36372 9.33067 8.36372 9.33067 8.36373 9.33067C8.36373 9.33067 8.36373 9.33067 8.36373 9.33067C8.36373 9.33067 8.36373 9.33067 8.36373 9.33067C8.36373 9.33067 8.36373 9.33067 8.36373 9.33067C8.36373 9.33067 8.36373 9.33067 8.36373 9.33067C8.36373 9.33067 8.36374 9.33067 8.36374 9.33067C8.36374 9.33067 8.36374 9.33067 8.36374 9.33067C8.36374 9.33067 8.36374 9.33067 8.36374 9.33067C8.36374 9.33067 8.36374 9.33067 8.36374 9.33067C8.36374 9.33067 8.36374 9.33067 8.36374 9.33067C8.36375 9.33067 8.36375 9.33067 8.36375 9.33067C8.36375 9.33067 8.36375 9.33067 8.36375 9.33067C8.36375 9.33067 8.36375 9.33067 8.36375 9.33067C8.36375 9.33067 8.36375 9.33067 8.36375 9.33067C8.36375 9.33067 8.36375 9.33067 8.36375 9.33067C8.36376 9.33067 8.36376 9.33067 8.36376 9.33067C8.36376 9.33067 8.36376 9.33067 8.36376 9.33067C8.36376 9.33067 8.36376 9.33067 8.36376 9.33067C8.36376 9.33067 8.36376 9.33067 8.36376 9.33067C8.36376 9.33067 8.36376 9.33067 8.36376 9.33067C8.36377 9.33067 8.36377 9.33067 8.36377 9.33067C8.36377 9.33067 8.36377 9.33067 8.36377 9.33067C8.36377 9.33067 8.36377 9.33067 8.36377 9.33067C8.36377 9.33067 8.36377 9.33067 8.36377 9.33067C8.36377 9.33067 8.36377 9.33067 8.36377 9.33067C8.36377 9.33067 8.36378 9.33067 8.36378 9.33067C8.36378 9.33067 8.36378 9.33067 8.36378 9.33067C8.36378 9.33067 8.36378 9.33067 8.36378 9.33067C8.36378 9.33067 8.36378 9.33067 8.36378 9.33067C8.36378 9.33067 8.36378 9.33067 8.36378 9.33067C8.36378 9.33067 8.36378 9.33067 8.36379 9.33067C8.36379 9.33067 8.36379 9.33067 8.36379 9.33067C8.36379 9.33067 8.36379 9.33067 8.36379 9.33067C8.36379 9.33067 8.36379 9.33067 8.36379 9.33067C8.36379 9.33067 8.36379 9.33067 8.36379 9.33067C8.36379 9.33067 8.36379 9.33067 8.36379 9.33067C8.36379 9.33067 8.3638 9.33067 8.3638 9.33067C8.3638 9.33067 8.3638 9.33067 8.3638 9.33067C8.3638 9.33067 8.3638 9.33067 8.3638 9.33067C8.3638 9.33067 8.3638 9.33067 8.3638 9.33067C8.3638 9.33067 8.3638 9.33067 8.3638 9.33067C8.3638 9.33067 8.3638 9.33067 8.3638 9.33067C8.36381 9.33067 8.36381 9.33067 8.36381 9.33067C8.36381 9.33067 8.36381 9.33067 8.36381 9.33067C8.36381 9.33067 8.36381 9.33067 8.36381 9.33067C8.36381 9.33067 8.36381 9.33067 8.36381 9.33067C8.36381 9.33067 8.36381 9.33067 8.36381 9.33067C8.36381 9.33067 8.36381 9.33067 8.36382 9.33067C8.36382 9.33067 8.36382 9.33067 8.36382 9.33067C8.36382 9.33067 8.36382 9.33067 8.36382 9.33067C8.36382 9.33067 8.36382 9.33067 8.36382 9.33067C8.36382 9.33067 8.36382 9.33067 8.36382 9.33067C8.36382 9.33067 8.36382 9.33067 8.36382 9.33067C8.36382 9.33067 8.36382 9.33067 8.36382 9.33067C8.36383 9.33067 8.36383 9.33067 8.36383 9.33067C8.36383 9.33067 8.36383 9.33067 8.36383 9.33067C8.36383 9.33067 8.36383 9.33067 8.36383 9.33067C8.36383 9.33067 8.36383 9.33067 8.36383 9.33067C8.36383 9.33067 8.36383 9.33067 8.36383 9.33067C8.36383 9.33067 8.36383 9.33067 8.36383 9.33067C8.36383 9.33067 8.36384 9.33067 8.36384 9.33067C8.36384 9.33067 8.36384 9.33067 8.36384 9.33067C8.36384 9.33067 8.36384 9.33067 8.36384 9.33067C8.36384 9.33067 8.36384 9.33067 8.36384 9.33067C8.36384 9.33067 8.36384 9.33067 8.36384 9.33067C8.36384 9.33067 8.36384 9.33067 8.36384 9.33067C8.36384 9.33067 8.36384 9.33067 8.36384 9.33067C8.36385 9.33067 8.36385 9.33067 8.36385 9.33067C8.36385 9.33067 8.36385 9.33067 8.36385 9.33067C8.36385 9.33067 8.36385 9.33067 8.36385 9.33067C8.36385 9.33067 8.36385 9.33067 8.36385 9.33067C8.36385 9.33067 8.36385 9.33067 8.36385 9.33067C8.36385 9.33067 8.36385 9.33067 8.36385 9.33067C8.36385 9.33067 8.36385 9.33067 8.36385 9.33067C8.36386 9.33067 8.36386 9.33067 8.36386 9.33067C8.36386 9.33067 8.36386 9.33067 8.36386 9.33067C8.36386 9.33067 8.36386 9.33067 8.36386 9.33067C8.36386 9.33067 8.36386 9.33067 8.36386 9.33067C8.36386 9.33067 8.36386 9.33067 8.36386 9.33067C8.36386 9.33067 8.36386 9.33067 8.36386 9.33067C8.36386 9.33067 8.36386 9.33067 8.36386 9.33067C8.36386 9.33067 8.36387 9.33067 8.36387 9.33067C8.36387 9.33067 8.36387 9.33067 8.36387 9.33067C8.36387 9.33067 8.36387 9.33067 8.36387 9.33067C8.36387 9.33067 8.36387 9.33067 8.36387 9.33067C8.36387 9.33067 8.36387 9.33067 8.36387 9.33067C8.36387 9.33067 8.36387 9.33067 8.36387 9.33067C8.36387 9.33067 8.36387 9.33067 8.36387 9.33067C8.36387 9.33067 8.36387 9.33067 8.36388 9.33067C8.36388 9.33067 8.36388 9.33067 8.36388 9.33067C8.36388 9.33067 8.36388 9.33067 8.36388 9.33067C8.36388 9.33067 8.36388 9.33067 8.36388 9.33067C8.36388 9.33067 8.36388 9.33067 8.36388 9.33067C8.36388 9.33067 8.36388 9.33067 8.36388 9.33067C8.36388 9.33067 8.36388 9.33067 8.36388 9.33067C8.36388 9.33067 8.36388 9.33067 8.36388 9.33067C8.36388 9.33067 8.36388 9.33067 8.36388 9.33067C8.36389 9.33067 8.36389 9.33067 8.36389 9.33067C8.36389 9.33067 8.36389 9.33067 8.36389 9.33067C8.36389 9.33067 8.36389 9.33067 8.36389 9.33067C8.36389 9.33067 8.36389 9.33067 8.36389 9.33067C8.36389 9.33067 8.36389 9.33067 8.36389 9.33067C8.36389 9.33067 8.36389 9.33067 8.36389 9.33067C8.36389 9.33067 8.36389 9.33067 8.36389 9.33067C8.36389 9.33067 8.36389 9.33067 8.36389 9.33067C8.36389 9.33067 8.3639 9.33067 8.3639 9.33067C8.3639 9.33067 8.3639 9.33067 8.3639 9.33067C8.3639 9.33067 8.3639 9.33067 8.3639 9.33067C8.3639 9.33067 8.3639 9.33067 8.3639 9.33067C8.3639 9.33067 8.3639 9.33067 8.3639 9.33067C8.3639 9.33067 8.3639 9.33067 8.3639 9.33067C8.3639 9.33067 8.3639 9.33067 8.3639 9.33067C8.3639 9.33067 8.3639 9.33067 8.3639 9.33067C8.3639 9.33067 8.3639 9.33067 8.3639 9.33067C8.3639 9.33067 8.36391 9.33067 8.36391 9.33067C8.36391 9.33067 8.36391 9.33067 8.36391 9.33067C8.36391 9.33067 8.36391 9.33067 8.36391 9.33067C8.36391 9.33067 8.36391 9.33067 8.36391 9.33067C8.36391 9.33067 8.36391 9.33067 8.36391 9.33067C8.36391 9.33067 8.36391 9.33067 8.36391 9.33067C8.36391 9.33067 8.36391 9.33067 8.36391 9.33067C8.36391 9.33067 8.36391 9.33067 8.36391 9.33067C8.36391 9.33067 8.36391 9.33067 8.36391 9.33067C8.36391 9.33067 8.36391 9.33067 8.36391 9.33067C8.36391 9.33067 8.36392 9.33067 8.36392 9.33067C8.36392 9.33067 8.36392 9.33067 8.36392 9.33067C8.36392 9.33067 8.36392 9.33067 8.36392 9.33067C8.36392 9.33067 8.36392 9.33067 8.36392 9.33067C8.36392 9.33067 8.36392 9.33067 8.36392 9.33067C8.36392 9.33067 8.36392 9.33067 8.36392 9.33067C8.36392 9.33067 8.36392 9.33067 8.36392 9.33067C8.36392 9.33067 8.36392 9.33067 8.36392 9.33067C8.36392 9.33067 8.36392 9.33067 8.36392 9.33067C8.36392 9.33067 8.36392 9.33067 8.36392 9.33067C8.36392 9.33067 8.36392 9.33067 8.36393 9.33067H8.36393C8.36393 9.33067 8.36393 9.33067 8.36393 9.33067C8.36393 9.33067 8.36393 9.33067 8.36393 9.33067C8.36393 9.33067 8.36393 9.33067 8.36393 9.33067C8.36393 9.33067 8.36393 9.33067 8.36393 9.33067C8.36393 9.33067 8.36393 9.33067 8.36393 9.33067H8.36393C8.36393 9.33067 8.36393 9.33067 8.36393 9.33067C8.36393 9.33067 8.36393 9.33067 8.36393 9.33067C8.36393 9.33067 8.36393 9.33067 8.36393 9.33067C8.36393 9.33067 8.36393 9.33067 8.36393 9.33067H8.36394C8.36394 9.33067 8.36394 9.33067 8.36394 9.33067C8.36394 9.33067 8.36394 9.33067 8.36394 9.33067H8.36394C8.36394 9.33067 8.36394 9.33067 8.36394 9.33067C8.36394 9.33067 8.36394 9.33067 8.36394 9.33067H8.36394C8.36394 9.33067 8.36394 9.33067 8.36394 9.33067C8.36394 9.33067 8.36394 9.33067 8.36394 9.33067H8.36394C8.36394 9.33067 8.36394 9.33067 8.36394 9.33067H8.36394C8.36394 9.33067 8.36394 9.33067 8.36395 9.33067H8.36395C8.36395 9.33067 8.36395 9.33067 8.36395 9.33067C8.36395 9.33067 8.36395 9.33067 8.36395 9.33067H8.36395C8.36395 9.33067 8.36395 9.33067 8.36395 9.33067C8.36395 9.33067 8.36395 9.33067 8.36395 9.33067H8.36395C8.36395 9.33067 8.36395 9.33067 8.36395 9.33067H8.36395C8.36395 9.33067 8.36395 9.33067 8.36395 9.33067H8.36395C8.36395 9.33067 8.36395 9.33067 8.36395 9.33067C8.36395 9.33067 8.36395 9.33067 8.36395 9.33067H8.36395C8.36396 9.33067 8.36396 9.33067 8.36396 9.33067H8.36396H8.36396C8.36396 9.33067 8.36396 9.33067 8.36396 9.33067H8.36396H8.36396C8.36396 9.33067 8.36396 9.33067 8.36396 9.33067C8.36396 9.33067 8.36396 9.33067 8.36396 9.33067H8.36396H8.36396C8.36396 9.33067 8.36396 9.33067 8.36396 9.33067C8.36396 9.33067 8.36396 9.33067 8.36396 9.33067H8.36396H8.36396C8.36396 9.33067 8.36396 9.33067 8.36396 9.33067C8.36396 9.33067 8.36396 9.33067 8.36396 9.33067C8.36396 9.33067 8.36396 9.33067 8.36397 9.33067C8.36397 9.33067 8.36397 9.33067 8.36397 9.33067H8.36397H8.36397H8.36397C8.36397 9.33067 8.36397 9.33067 8.36397 9.33067C8.36397 9.33067 8.36397 9.33067 8.36397 9.33067C8.36397 9.33067 8.36397 9.33067 8.36397 9.33067C8.36397 9.33067 8.36397 9.33067 8.36397 9.33067C8.36397 9.33067 8.36397 9.33067 8.36397 9.33067C8.36397 9.33067 8.36397 9.33067 8.36397 9.33067C8.36397 9.33067 8.36397 9.33067 8.36397 9.33067C8.36397 9.33067 8.36397 9.33067 8.36397 9.33067C8.36397 9.33067 8.36397 9.33067 8.36397 9.33067C8.36397 9.33067 8.36397 9.33067 8.36397 9.33067C8.36397 9.33067 8.36397 9.33067 8.36397 9.33067C8.36397 9.33067 8.36397 9.33067 8.36397 9.33067C8.36397 9.33067 8.36397 9.33067 8.36397 9.33067C8.36397 9.33067 8.36397 9.33067 8.36397 9.33067C8.36397 9.33067 8.36397 9.33067 8.36397 9.33067C8.36398 9.33067 8.36398 9.33067 8.36398 9.33067C8.36398 9.33067 8.36398 9.33067 8.36398 9.33067H8.36398H8.36398H8.36398C8.36398 9.33067 8.36398 9.33067 8.36398 9.33067C8.36398 9.33067 8.36398 9.33067 8.36398 9.33067C8.36398 9.33067 8.36398 9.33067 8.36398 9.33067H8.36398H8.36398C8.36398 9.33067 8.36398 9.33067 8.36398 9.33067C8.36398 9.33067 8.36398 9.33067 8.36398 9.33067H8.36398C8.36398 9.33067 8.36398 9.33067 8.36398 9.33067C8.36398 9.33067 8.36398 9.33067 8.36398 9.33067H8.36398C8.36398 9.33067 8.36398 9.33067 8.36398 9.33067C8.36398 9.33067 8.36398 9.33067 8.36398 9.33067H8.36398C8.36398 9.33067 8.36398 9.33067 8.36398 9.33067H8.36398C8.36398 9.33067 8.36398 9.33067 8.36399 9.33067H8.36399C8.36399 9.33067 8.36399 9.33067 8.36399 9.33067C8.36399 9.33067 8.36399 9.33067 8.36399 9.33067H8.36399C8.36399 9.33067 8.36399 9.33067 8.36399 9.33067C8.36399 9.33067 8.36399 9.33067 8.36399 9.33067H8.36399H8.36399C8.36399 9.33067 8.36399 9.33067 8.36399 9.33067C8.36399 9.33067 8.36399 9.33067 8.36399 9.33067C8.36399 9.33067 8.36399 9.33067 8.36399 9.33067C8.36399 9.33067 8.36399 9.33067 8.36399 9.33067H8.36399H8.36399C8.36399 9.33067 8.36399 9.33067 8.36399 9.33067C8.36399 9.33067 8.36399 9.33067 8.36399 9.33067C8.36399 9.33067 8.36399 9.33067 8.36399 9.33067H8.36399C8.36399 9.33067 8.36399 9.33067 8.36399 9.33067C8.36399 9.33067 8.36399 9.33067 8.36399 9.33067C8.364 9.33067 8.364 9.33067 8.364 9.33067H8.364C8.364 9.33067 8.364 9.33067 8.364 9.33067H8.364C8.364 9.33067 8.364 9.33067 8.364 9.33067C8.364 9.33067 8.364 9.33067 8.364 9.33067H8.364H8.364H8.364C8.364 9.33067 8.364 9.33067 8.364 9.33067H8.364C8.364 9.23067 8.364 9.13067 8.364 9.23067ZM8.29262 9.30138L8.33729 9.34604L8.47871 9.20462L8.43404 9.15996L8.29262 9.30138ZM8.49744 9.23061C8.49914 9.23401 8.49927 9.23581 8.49757 9.22933C8.49703 9.22728 8.49562 9.22169 8.49428 9.21697C8.49278 9.21165 8.49061 9.20461 8.48751 9.19686L8.30182 9.27114C8.30156 9.27049 8.30139 9.26967 8.3041 9.28C8.30607 9.28753 8.31019 9.30333 8.31856 9.32006L8.49744 9.23061ZM8.4864 9.19419C8.43484 9.07538 8.42888 8.94551 8.46528 8.8215L8.27338 8.76516C8.22445 8.93183 8.23183 9.10996 8.30293 9.27381L8.4864 9.19419ZM8.46513 8.82201C8.49168 8.73333 8.52974 8.65515 8.59241 8.59301L8.45159 8.45099C8.35693 8.54485 8.30566 8.65734 8.27353 8.76466L8.46513 8.82201ZM8.59271 8.59271C8.75947 8.42595 9.00608 8.39529 9.21379 8.49199L9.29821 8.31068C9.02192 8.18205 8.68319 8.21939 8.45129 8.45129L8.59271 8.59271ZM9.21539 8.49271C9.22216 8.49572 9.22808 8.49764 9.23168 8.49873C9.23354 8.49929 9.23518 8.49976 9.23625 8.50005C9.23784 8.5005 9.23766 8.50044 9.23844 8.50066C9.23941 8.50094 9.23778 8.50051 9.2353 8.49959C9.2327 8.49861 9.22766 8.49655 9.22167 8.4928L9.32767 8.3232C9.31901 8.31779 9.31105 8.31439 9.30539 8.31227C9.29985 8.3102 9.29501 8.30882 9.29273 8.30817C9.29189 8.30793 9.29007 8.30743 9.29002 8.30742C9.28946 8.30726 9.28947 8.30726 9.28972 8.30733C9.29009 8.30745 9.29284 8.30828 9.29661 8.30995L9.21539 8.49271ZM9.34826 8.3403L9.33293 8.32363L9.18574 8.45904L9.20107 8.47571L9.34826 8.3403ZM9.32921 8.3198L9.30054 8.2918L9.16079 8.43487L9.18946 8.46287L9.32921 8.3198ZM9.23067 8.36333C9.23067 8.46333 9.23067 8.46333 9.23067 8.46333C9.23067 8.46333 9.23067 8.46333 9.23067 8.46333H9.23067C9.23067 8.46333 9.23067 8.46333 9.23067 8.46333C9.23067 8.46333 9.23067 8.46333 9.23067 8.46333C9.23067 8.46333 9.23067 8.46333 9.23067 8.46333C9.23067 8.46333 9.23067 8.46333 9.23067 8.46333C9.23067 8.46333 9.23067 8.46333 9.23067 8.46333C9.23067 8.46333 9.23067 8.46333 9.23067 8.46333H9.23068C9.23068 8.46333 9.23068 8.46333 9.23068 8.46333C9.23068 8.46333 9.23068 8.46333 9.23068 8.46333H9.23068C9.23068 8.46333 9.23068 8.46333 9.23068 8.46333H9.23068C9.23068 8.46333 9.23068 8.46333 9.23068 8.46333C9.23068 8.46333 9.23068 8.46333 9.23068 8.46333C9.23068 8.46333 9.23068 8.46333 9.23068 8.46333C9.23068 8.46333 9.23068 8.46333 9.23068 8.46333H9.23069C9.23069 8.46333 9.23069 8.46333 9.23069 8.46333C9.23069 8.46333 9.23069 8.46333 9.23069 8.46333C9.23069 8.46333 9.23069 8.46333 9.23069 8.46333C9.23069 8.46333 9.23069 8.46333 9.23069 8.46333C9.23069 8.46333 9.23069 8.46333 9.23069 8.46333C9.23069 8.46333 9.23069 8.46333 9.23069 8.46333H9.23069C9.23069 8.46333 9.23069 8.46333 9.23069 8.46333C9.23069 8.46333 9.23069 8.46333 9.23069 8.46333C9.23069 8.46333 9.23069 8.46333 9.23069 8.46333C9.23069 8.46333 9.23069 8.46333 9.2307 8.46333C9.2307 8.46333 9.2307 8.46333 9.2307 8.46333C9.2307 8.46333 9.2307 8.46333 9.2307 8.46333C9.2307 8.46333 9.2307 8.46333 9.2307 8.46333H9.2307H9.2307C9.2307 8.46333 9.2307 8.46333 9.2307 8.46333C9.2307 8.46333 9.2307 8.46333 9.2307 8.46333H9.2307H9.2307C9.2307 8.46333 9.2307 8.46333 9.23071 8.46333H9.23071C9.23071 8.46333 9.23071 8.46333 9.23071 8.46333C9.23071 8.46333 9.23071 8.46333 9.23071 8.46333H9.23071C9.23071 8.46333 9.23071 8.46333 9.23071 8.46333H9.23071C9.23071 8.46333 9.23071 8.46333 9.23071 8.46333H9.23071C9.23071 8.46333 9.23071 8.46333 9.23071 8.46333C9.23071 8.46333 9.23071 8.46333 9.23071 8.46333H9.23072C9.23072 8.46333 9.23072 8.46333 9.23072 8.46333H9.23072C9.23072 8.46333 9.23072 8.46333 9.23072 8.46333C9.23072 8.46333 9.23072 8.46333 9.23072 8.46333H9.23072C9.23072 8.46333 9.23072 8.46333 9.23072 8.46333C9.23072 8.46333 9.23072 8.46333 9.23072 8.46333C9.23072 8.46333 9.23072 8.46333 9.23072 8.46333H9.23072C9.23072 8.46333 9.23072 8.46333 9.23073 8.46333C9.23073 8.46333 9.23073 8.46333 9.23073 8.46333C9.23073 8.46333 9.23073 8.46333 9.23073 8.46333H9.23073C9.23073 8.46333 9.23073 8.46333 9.23073 8.46333C9.23073 8.46333 9.23073 8.46333 9.23073 8.46333C9.23073 8.46333 9.23073 8.46333 9.23073 8.46333C9.23073 8.46333 9.23073 8.46333 9.23073 8.46333H9.23073H9.23073H9.23073C9.23073 8.46333 9.23073 8.46333 9.23074 8.46333C9.23074 8.46333 9.23074 8.46333 9.23074 8.46333C9.23074 8.46333 9.23074 8.46333 9.23074 8.46333C9.23074 8.46333 9.23074 8.46333 9.23074 8.46333C9.23074 8.46333 9.23074 8.46333 9.23074 8.46333C9.23074 8.46333 9.23074 8.46333 9.23074 8.46333C9.23074 8.46333 9.23074 8.46333 9.23074 8.46333C9.23074 8.46333 9.23074 8.46333 9.23074 8.46333H9.23074H9.23074H9.23075H9.23075H9.23075H9.23075H9.23075H9.23075H9.23075H9.23075C9.23075 8.46333 9.23075 8.46333 9.23075 8.46333C9.23075 8.46333 9.23075 8.46333 9.23075 8.46333C9.23075 8.46333 9.23075 8.46333 9.23075 8.46333C9.23076 8.46333 9.23076 8.46333 9.23076 8.46333C9.23076 8.46333 9.23076 8.46333 9.23076 8.46333C9.23076 8.46333 9.23076 8.46333 9.23076 8.46333C9.23076 8.46333 9.23076 8.46333 9.23076 8.46333C9.23076 8.46333 9.23076 8.46333 9.23076 8.46333H9.23076H9.23076H9.23076C9.23076 8.46333 9.23076 8.46333 9.23076 8.46333C9.23077 8.46333 9.23077 8.46333 9.23077 8.46333C9.23077 8.46333 9.23077 8.46333 9.23077 8.46333C9.23077 8.46333 9.23077 8.46333 9.23077 8.46333C9.23077 8.46333 9.23077 8.46333 9.23077 8.46333H9.23077H9.23077C9.23077 8.46333 9.23077 8.46333 9.23077 8.46333C9.23077 8.46333 9.23077 8.46333 9.23077 8.46333C9.23077 8.46333 9.23077 8.46333 9.23077 8.46333H9.23078H9.23078C9.23078 8.46333 9.23078 8.46333 9.23078 8.46333C9.23078 8.46333 9.23078 8.46333 9.23078 8.46333H9.23078H9.23078C9.23078 8.46333 9.23078 8.46333 9.23078 8.46333C9.23078 8.46333 9.23078 8.46333 9.23078 8.46333H9.23079C9.23079 8.46333 9.23079 8.46333 9.23079 8.46333C9.23079 8.46333 9.23079 8.46333 9.23079 8.46333H9.23079C9.23079 8.46333 9.23079 8.46333 9.23079 8.46333C9.23079 8.46333 9.23079 8.46333 9.23079 8.46333H9.23079C9.23079 8.46333 9.23079 8.46333 9.23079 8.46333C9.23079 8.46333 9.23079 8.46333 9.2308 8.46333H9.2308C9.2308 8.46333 9.2308 8.46333 9.2308 8.46333H9.2308H9.2308C9.2308 8.46333 9.2308 8.46333 9.2308 8.46333H9.2308C9.2308 8.46333 9.2308 8.46333 9.23081 8.46333H9.23081C9.23081 8.46333 9.23081 8.46333 9.23081 8.46333H9.23081H9.23081C9.23081 8.46333 9.23081 8.46333 9.23081 8.46333H9.23081C9.23081 8.46333 9.23081 8.46333 9.23081 8.46333H9.23082C9.23082 8.46333 9.23082 8.46333 9.23082 8.46333H9.23082C9.23082 8.46333 9.23082 8.46333 9.23082 8.46333C9.23082 8.46333 9.23082 8.46333 9.23082 8.46333H9.23082C9.23082 8.46333 9.23082 8.46333 9.23083 8.46333H9.23083C9.23083 8.46333 9.23083 8.46333 9.23083 8.46333H9.23083C9.23083 8.46333 9.23083 8.46333 9.23083 8.46333C9.23083 8.46333 9.23083 8.46333 9.23083 8.46333H9.23083C9.23083 8.46333 9.23083 8.46333 9.23084 8.46333C9.23084 8.46333 9.23084 8.46333 9.23084 8.46333H9.23084C9.23084 8.46333 9.23084 8.46333 9.23084 8.46333C9.23084 8.46333 9.23084 8.46333 9.23084 8.46333H9.23084C9.23084 8.46333 9.23084 8.46333 9.23085 8.46333C9.23085 8.46333 9.23085 8.46333 9.23085 8.46333H9.23085C9.23085 8.46333 9.23085 8.46333 9.23085 8.46333C9.23085 8.46333 9.23085 8.46333 9.23085 8.46333C9.23085 8.46333 9.23085 8.46333 9.23085 8.46333H9.23085C9.23086 8.46333 9.23086 8.46333 9.23086 8.46333C9.23086 8.46333 9.23086 8.46333 9.23086 8.46333C9.23086 8.46333 9.23086 8.46333 9.23086 8.46333C9.23086 8.46333 9.23086 8.46333 9.23086 8.46333H9.23086C9.23086 8.46333 9.23087 8.46333 9.23087 8.46333C9.23087 8.46333 9.23087 8.46333 9.23087 8.46333C9.23087 8.46333 9.23087 8.46333 9.23087 8.46333C9.23087 8.46333 9.23087 8.46333 9.23087 8.46333C9.23087 8.46333 9.23087 8.46333 9.23087 8.46333H9.23087C9.23088 8.46333 9.23088 8.46333 9.23088 8.46333C9.23088 8.46333 9.23088 8.46333 9.23088 8.46333C9.23088 8.46333 9.23088 8.46333 9.23088 8.46333C9.23088 8.46333 9.23088 8.46333 9.23088 8.46333C9.23088 8.46333 9.23088 8.46333 9.23088 8.46333C9.23088 8.46333 9.23088 8.46333 9.23089 8.46333C9.23089 8.46333 9.23089 8.46333 9.23089 8.46333C9.23089 8.46333 9.23089 8.46333 9.23089 8.46333C9.23089 8.46333 9.23089 8.46333 9.23089 8.46333C9.23089 8.46333 9.23089 8.46333 9.23089 8.46333C9.23089 8.46333 9.23089 8.46333 9.2309 8.46333C9.2309 8.46333 9.2309 8.46333 9.2309 8.46333C9.2309 8.46333 9.2309 8.46333 9.2309 8.46333C9.2309 8.46333 9.2309 8.46333 9.2309 8.46333C9.2309 8.46333 9.2309 8.46333 9.2309 8.46333C9.2309 8.46333 9.2309 8.46333 9.2309 8.46333C9.23091 8.46333 9.23091 8.46333 9.23091 8.46333C9.23091 8.46333 9.23091 8.46333 9.23091 8.46333C9.23091 8.46333 9.23091 8.46333 9.23091 8.46333C9.23091 8.46333 9.23091 8.46333 9.23091 8.46333C9.23091 8.46333 9.23091 8.46333 9.23091 8.46333C9.23092 8.46333 9.23092 8.46333 9.23092 8.46333C9.23092 8.46333 9.23092 8.46333 9.23092 8.46333C9.23092 8.46333 9.23092 8.46333 9.23092 8.46333C9.23092 8.46333 9.23092 8.46333 9.23092 8.46333C9.23092 8.46333 9.23092 8.46333 9.23092 8.46333C9.23093 8.46333 9.23093 8.46333 9.23093 8.46333C9.23093 8.46333 9.23093 8.46333 9.23093 8.46333C9.23093 8.46333 9.23093 8.46333 9.23093 8.46333C9.23093 8.46333 9.23093 8.46333 9.23093 8.46333C9.23093 8.46333 9.23093 8.46333 9.23094 8.46333C9.23094 8.46333 9.23094 8.46333 9.23094 8.46333C9.23094 8.46333 9.23094 8.46333 9.23094 8.46333C9.23094 8.46333 9.23094 8.46333 9.23094 8.46333C9.23094 8.46333 9.23094 8.46333 9.23094 8.46333C9.23094 8.46333 9.23095 8.46333 9.23095 8.46333C9.23095 8.46333 9.23095 8.46333 9.23095 8.46333C9.23095 8.46333 9.23095 8.46333 9.23095 8.46333C9.23095 8.46333 9.23095 8.46333 9.23095 8.46333C9.23095 8.46333 9.23095 8.46333 9.23096 8.46333C9.23096 8.46333 9.23096 8.46333 9.23096 8.46333C9.23096 8.46333 9.23096 8.46333 9.23096 8.46333C9.23096 8.46333 9.23096 8.46333 9.23096 8.46333C9.23096 8.46333 9.23096 8.46333 9.23096 8.46333C9.23096 8.46333 9.23097 8.46333 9.23097 8.46333C9.23097 8.46333 9.23097 8.46333 9.23097 8.46333C9.23097 8.46333 9.23097 8.46333 9.23097 8.46333C9.23097 8.46333 9.23097 8.46333 9.23097 8.46333C9.23097 8.46333 9.23097 8.46333 9.23098 8.46333C9.23098 8.46333 9.23098 8.46333 9.23098 8.46333C9.23098 8.46333 9.23098 8.46333 9.23098 8.46333C9.23098 8.46333 9.23098 8.46333 9.23098 8.46333C9.23098 8.46333 9.23098 8.46333 9.23098 8.46333C9.23099 8.46333 9.23099 8.46333 9.23099 8.46333C9.23099 8.46333 9.23099 8.46333 9.23099 8.46333C9.23099 8.46333 9.23099 8.46333 9.23099 8.46333C9.23099 8.46333 9.23099 8.46333 9.23099 8.46333C9.231 8.46333 9.231 8.46333 9.231 8.46333C9.231 8.46333 9.231 8.46333 9.231 8.46333C9.231 8.46333 9.231 8.46333 9.231 8.46333C9.231 8.46333 9.231 8.46333 9.231 8.46333C9.231 8.46333 9.23101 8.46333 9.23101 8.46333C9.23101 8.46333 9.23101 8.46333 9.23101 8.46333C9.23101 8.46333 9.23101 8.46333 9.23101 8.46333C9.23101 8.46333 9.23101 8.46333 9.23101 8.46333C9.23102 8.46333 9.23102 8.46333 9.23102 8.46333C9.23102 8.46333 9.23102 8.46333 9.23102 8.46333C9.23102 8.46333 9.23102 8.46333 9.23102 8.46333C9.23102 8.46333 9.23102 8.46333 9.23102 8.46333C9.23103 8.46333 9.23103 8.46333 9.23103 8.46333C9.23103 8.46333 9.23103 8.46333 9.23103 8.46333C9.23103 8.46333 9.23103 8.46333 9.23103 8.46333C9.23103 8.46333 9.23103 8.46333 9.23104 8.46333C9.23104 8.46333 9.23104 8.46333 9.23104 8.46333C9.23104 8.46333 9.23104 8.46333 9.23104 8.46333C9.23104 8.46333 9.23104 8.46333 9.23104 8.46333C9.23104 8.46333 9.23104 8.46333 9.23105 8.46333C9.23105 8.46333 9.23105 8.46333 9.23105 8.46333C9.23105 8.46333 9.23105 8.46333 9.23105 8.46333C9.23105 8.46333 9.23105 8.46333 9.23105 8.46333C9.23105 8.46333 9.23106 8.46333 9.23106 8.46333C9.23106 8.46333 9.23106 8.46333 9.23106 8.46333C9.23106 8.46333 9.23106 8.46333 9.23106 8.46333C9.23106 8.46333 9.23106 8.46333 9.23106 8.46333C9.23107 8.46333 9.23107 8.46333 9.23107 8.46333C9.23107 8.46333 9.23107 8.46333 9.23107 8.46333C9.23107 8.46333 9.23107 8.46333 9.23107 8.46333C9.23107 8.46333 9.23108 8.46333 9.23108 8.46333C9.23108 8.46333 9.23108 8.46333 9.23108 8.46333C9.23108 8.46333 9.23108 8.46333 9.23108 8.46333C9.23108 8.46333 9.23108 8.46333 9.23108 8.46333C9.23109 8.46333 9.23109 8.46333 9.23109 8.46333C9.23109 8.46333 9.23109 8.46333 9.23109 8.46333C9.23109 8.46333 9.23109 8.46333 9.23109 8.46333C9.23109 8.46333 9.2311 8.46333 9.2311 8.46333C9.2311 8.46333 9.2311 8.46333 9.2311 8.46333C9.2311 8.46333 9.2311 8.46333 9.2311 8.46333C9.2311 8.46333 9.2311 8.46333 9.2311 8.46333C9.23111 8.46333 9.23111 8.46333 9.23111 8.46333C9.23111 8.46333 9.23111 8.46333 9.23111 8.46333C9.23111 8.46333 9.23111 8.46333 9.23111 8.46333C9.23111 8.46333 9.23112 8.46333 9.23112 8.46333C9.23112 8.46333 9.23112 8.46333 9.23112 8.46333C9.23112 8.46333 9.23112 8.46333 9.23112 8.46333C9.23112 8.46333 9.23112 8.46333 9.23113 8.46333C9.23113 8.46333 9.23113 8.46333 9.23113 8.46333C9.23113 8.46333 9.23113 8.46333 9.23113 8.46333C9.23113 8.46333 9.23113 8.46333 9.23113 8.46333C9.23114 8.46333 9.23114 8.46333 9.23114 8.46333C9.23114 8.46333 9.23114 8.46333 9.23114 8.46333C9.23114 8.46333 9.23114 8.46333 9.23114 8.46333C9.23114 8.46333 9.23115 8.46333 9.23115 8.46333C9.23115 8.46333 9.23115 8.46333 9.23115 8.46333C9.23115 8.46333 9.23115 8.46333 9.23115 8.46333C9.23115 8.46333 9.23116 8.46333 9.23116 8.46333C9.23116 8.46333 9.23116 8.46333 9.23116 8.46333C9.23116 8.46333 9.23116 8.46333 9.23116 8.46333C9.23116 8.46333 9.23116 8.46333 9.23117 8.46333C9.23117 8.46333 9.23117 8.46333 9.23117 8.46333C9.23117 8.46333 9.23117 8.46333 9.23117 8.46333C9.23117 8.46333 9.23118 8.46333 9.23118 8.46333C9.23118 8.46333 9.23118 8.46333 9.23118 8.46333C9.23118 8.46333 9.23118 8.46333 9.23118 8.46333C9.23118 8.46333 9.23118 8.46333 9.23119 8.46333C9.23119 8.46333 9.23119 8.46333 9.23119 8.46333C9.23119 8.46333 9.23119 8.46333 9.23119 8.46333C9.23119 8.46333 9.23119 8.46333 9.2312 8.46333C9.2312 8.46333 9.2312 8.46333 9.2312 8.46333C9.2312 8.46333 9.2312 8.46333 9.2312 8.46333C9.2312 8.46333 9.2312 8.46333 9.23121 8.46333C9.23121 8.46333 9.23121 8.46333 9.23121 8.46333C9.23121 8.46333 9.23121 8.46333 9.23121 8.46333C9.23121 8.46333 9.23122 8.46333 9.23122 8.46333C9.23122 8.46333 9.23122 8.46333 9.23122 8.46333C9.23122 8.46333 9.23122 8.46333 9.23122 8.46333C9.23122 8.46333 9.23123 8.46333 9.23123 8.46333C9.23123 8.46333 9.23123 8.46333 9.23123 8.46333C9.23123 8.46333 9.23123 8.46333 9.23123 8.46333C9.23123 8.46333 9.23124 8.46333 9.23124 8.46333C9.23124 8.46333 9.23124 8.46333 9.23124 8.46333C9.23124 8.46333 9.23124 8.46333 9.23124 8.46333C9.23125 8.46333 9.23125 8.46333 9.23125 8.46333C9.23125 8.46333 9.23125 8.46333 9.23125 8.46333C9.23125 8.46333 9.23125 8.46333 9.23125 8.46333C9.23126 8.46333 9.23126 8.46333 9.23126 8.46333C9.23126 8.46333 9.23126 8.46333 9.23126 8.46333C9.23126 8.46333 9.23126 8.46333 9.23127 8.46333C9.23127 8.46333 9.23127 8.46333 9.23127 8.46333C9.23127 8.46333 9.23127 8.46333 9.23127 8.46333C9.23127 8.46333 9.23128 8.46333 9.23128 8.46333C9.23128 8.46333 9.23128 8.46333 9.23128 8.46333C9.23128 8.46333 9.23128 8.46333 9.23128 8.46333C9.23129 8.46333 9.23129 8.46333 9.23129 8.46333C9.23129 8.46333 9.23129 8.46333 9.23129 8.46333C9.23129 8.46333 9.23129 8.46333 9.2313 8.46333C9.2313 8.46333 9.2313 8.46333 9.2313 8.46333C9.2313 8.46333 9.2313 8.46333 9.2313 8.46333C9.2313 8.46333 9.23131 8.46333 9.23131 8.46333C9.23131 8.46333 9.23131 8.46333 9.23131 8.46333C9.23131 8.46333 9.23131 8.46333 9.23131 8.46333C9.23132 8.46333 9.23132 8.46333 9.23132 8.46333C9.23132 8.46333 9.23132 8.46333 9.23132 8.46333C9.23132 8.46333 9.23132 8.46333 9.23133 8.46333C9.23133 8.46333 9.23133 8.46333 9.23133 8.46333C9.23133 8.46333 9.23133 8.46333 9.23133 8.46333V8.26333C9.23133 8.26333 9.23133 8.26333 9.23133 8.26333C9.23133 8.26333 9.23133 8.26333 9.23133 8.26333C9.23132 8.26333 9.23132 8.26333 9.23132 8.26333C9.23132 8.26333 9.23132 8.26333 9.23132 8.26333C9.23132 8.26333 9.23132 8.26333 9.23131 8.26333C9.23131 8.26333 9.23131 8.26333 9.23131 8.26333C9.23131 8.26333 9.23131 8.26333 9.23131 8.26333C9.23131 8.26333 9.2313 8.26333 9.2313 8.26333C9.2313 8.26333 9.2313 8.26333 9.2313 8.26333C9.2313 8.26333 9.2313 8.26333 9.2313 8.26333C9.23129 8.26333 9.23129 8.26333 9.23129 8.26333C9.23129 8.26333 9.23129 8.26333 9.23129 8.26333C9.23129 8.26333 9.23129 8.26333 9.23128 8.26333C9.23128 8.26333 9.23128 8.26333 9.23128 8.26333C9.23128 8.26333 9.23128 8.26333 9.23128 8.26333C9.23128 8.26333 9.23127 8.26333 9.23127 8.26333C9.23127 8.26333 9.23127 8.26333 9.23127 8.26333C9.23127 8.26333 9.23127 8.26333 9.23127 8.26333C9.23126 8.26333 9.23126 8.26333 9.23126 8.26333C9.23126 8.26333 9.23126 8.26333 9.23126 8.26333C9.23126 8.26333 9.23126 8.26333 9.23125 8.26333C9.23125 8.26333 9.23125 8.26333 9.23125 8.26333C9.23125 8.26333 9.23125 8.26333 9.23125 8.26333C9.23125 8.26333 9.23125 8.26333 9.23124 8.26333C9.23124 8.26333 9.23124 8.26333 9.23124 8.26333C9.23124 8.26333 9.23124 8.26333 9.23124 8.26333C9.23124 8.26333 9.23123 8.26333 9.23123 8.26333C9.23123 8.26333 9.23123 8.26333 9.23123 8.26333C9.23123 8.26333 9.23123 8.26333 9.23123 8.26333C9.23123 8.26333 9.23122 8.26333 9.23122 8.26333C9.23122 8.26333 9.23122 8.26333 9.23122 8.26333C9.23122 8.26333 9.23122 8.26333 9.23122 8.26333C9.23122 8.26333 9.23121 8.26333 9.23121 8.26333C9.23121 8.26333 9.23121 8.26333 9.23121 8.26333C9.23121 8.26333 9.23121 8.26333 9.23121 8.26333C9.2312 8.26333 9.2312 8.26333 9.2312 8.26333C9.2312 8.26333 9.2312 8.26333 9.2312 8.26333C9.2312 8.26333 9.2312 8.26333 9.2312 8.26333C9.23119 8.26333 9.23119 8.26333 9.23119 8.26333C9.23119 8.26333 9.23119 8.26333 9.23119 8.26333C9.23119 8.26333 9.23119 8.26333 9.23119 8.26333C9.23118 8.26333 9.23118 8.26333 9.23118 8.26333C9.23118 8.26333 9.23118 8.26333 9.23118 8.26333C9.23118 8.26333 9.23118 8.26333 9.23118 8.26333C9.23118 8.26333 9.23117 8.26333 9.23117 8.26333C9.23117 8.26333 9.23117 8.26333 9.23117 8.26333C9.23117 8.26333 9.23117 8.26333 9.23117 8.26333C9.23116 8.26333 9.23116 8.26333 9.23116 8.26333C9.23116 8.26333 9.23116 8.26333 9.23116 8.26333C9.23116 8.26333 9.23116 8.26333 9.23116 8.26333C9.23116 8.26333 9.23115 8.26333 9.23115 8.26333C9.23115 8.26333 9.23115 8.26333 9.23115 8.26333C9.23115 8.26333 9.23115 8.26333 9.23115 8.26333C9.23115 8.26333 9.23114 8.26333 9.23114 8.26333C9.23114 8.26333 9.23114 8.26333 9.23114 8.26333C9.23114 8.26333 9.23114 8.26333 9.23114 8.26333C9.23114 8.26333 9.23114 8.26333 9.23113 8.26333C9.23113 8.26333 9.23113 8.26333 9.23113 8.26333C9.23113 8.26333 9.23113 8.26333 9.23113 8.26333C9.23113 8.26333 9.23113 8.26333 9.23113 8.26333C9.23112 8.26333 9.23112 8.26333 9.23112 8.26333C9.23112 8.26333 9.23112 8.26333 9.23112 8.26333C9.23112 8.26333 9.23112 8.26333 9.23112 8.26333C9.23112 8.26333 9.23111 8.26333 9.23111 8.26333C9.23111 8.26333 9.23111 8.26333 9.23111 8.26333C9.23111 8.26333 9.23111 8.26333 9.23111 8.26333C9.23111 8.26333 9.23111 8.26333 9.2311 8.26333C9.2311 8.26333 9.2311 8.26333 9.2311 8.26333C9.2311 8.26333 9.2311 8.26333 9.2311 8.26333C9.2311 8.26333 9.2311 8.26333 9.2311 8.26333C9.2311 8.26333 9.23109 8.26333 9.23109 8.26333C9.23109 8.26333 9.23109 8.26333 9.23109 8.26333C9.23109 8.26333 9.23109 8.26333 9.23109 8.26333C9.23109 8.26333 9.23109 8.26333 9.23108 8.26333C9.23108 8.26333 9.23108 8.26333 9.23108 8.26333C9.23108 8.26333 9.23108 8.26333 9.23108 8.26333C9.23108 8.26333 9.23108 8.26333 9.23108 8.26333C9.23108 8.26333 9.23107 8.26333 9.23107 8.26333C9.23107 8.26333 9.23107 8.26333 9.23107 8.26333C9.23107 8.26333 9.23107 8.26333 9.23107 8.26333C9.23107 8.26333 9.23107 8.26333 9.23106 8.26333C9.23106 8.26333 9.23106 8.26333 9.23106 8.26333C9.23106 8.26333 9.23106 8.26333 9.23106 8.26333C9.23106 8.26333 9.23106 8.26333 9.23106 8.26333C9.23106 8.26333 9.23105 8.26333 9.23105 8.26333C9.23105 8.26333 9.23105 8.26333 9.23105 8.26333C9.23105 8.26333 9.23105 8.26333 9.23105 8.26333C9.23105 8.26333 9.23105 8.26333 9.23105 8.26333C9.23104 8.26333 9.23104 8.26333 9.23104 8.26333C9.23104 8.26333 9.23104 8.26333 9.23104 8.26333C9.23104 8.26333 9.23104 8.26333 9.23104 8.26333C9.23104 8.26333 9.23104 8.26333 9.23104 8.26333C9.23103 8.26333 9.23103 8.26333 9.23103 8.26333C9.23103 8.26333 9.23103 8.26333 9.23103 8.26333C9.23103 8.26333 9.23103 8.26333 9.23103 8.26333C9.23103 8.26333 9.23103 8.26333 9.23102 8.26333C9.23102 8.26333 9.23102 8.26333 9.23102 8.26333C9.23102 8.26333 9.23102 8.26333 9.23102 8.26333C9.23102 8.26333 9.23102 8.26333 9.23102 8.26333C9.23102 8.26333 9.23102 8.26333 9.23101 8.26333C9.23101 8.26333 9.23101 8.26333 9.23101 8.26333C9.23101 8.26333 9.23101 8.26333 9.23101 8.26333C9.23101 8.26333 9.23101 8.26333 9.23101 8.26333C9.23101 8.26333 9.231 8.26333 9.231 8.26333C9.231 8.26333 9.231 8.26333 9.231 8.26333C9.231 8.26333 9.231 8.26333 9.231 8.26333C9.231 8.26333 9.231 8.26333 9.231 8.26333C9.231 8.26333 9.231 8.26333 9.23099 8.26333C9.23099 8.26333 9.23099 8.26333 9.23099 8.26333C9.23099 8.26333 9.23099 8.26333 9.23099 8.26333C9.23099 8.26333 9.23099 8.26333 9.23099 8.26333C9.23099 8.26333 9.23099 8.26333 9.23098 8.26333C9.23098 8.26333 9.23098 8.26333 9.23098 8.26333C9.23098 8.26333 9.23098 8.26333 9.23098 8.26333C9.23098 8.26333 9.23098 8.26333 9.23098 8.26333C9.23098 8.26333 9.23098 8.26333 9.23098 8.26333C9.23097 8.26333 9.23097 8.26333 9.23097 8.26333C9.23097 8.26333 9.23097 8.26333 9.23097 8.26333C9.23097 8.26333 9.23097 8.26333 9.23097 8.26333C9.23097 8.26333 9.23097 8.26333 9.23097 8.26333C9.23097 8.26333 9.23096 8.26333 9.23096 8.26333C9.23096 8.26333 9.23096 8.26333 9.23096 8.26333C9.23096 8.26333 9.23096 8.26333 9.23096 8.26333C9.23096 8.26333 9.23096 8.26333 9.23096 8.26333C9.23096 8.26333 9.23096 8.26333 9.23096 8.26333C9.23095 8.26333 9.23095 8.26333 9.23095 8.26333C9.23095 8.26333 9.23095 8.26333 9.23095 8.26333C9.23095 8.26333 9.23095 8.26333 9.23095 8.26333C9.23095 8.26333 9.23095 8.26333 9.23095 8.26333C9.23095 8.26333 9.23094 8.26333 9.23094 8.26333C9.23094 8.26333 9.23094 8.26333 9.23094 8.26333C9.23094 8.26333 9.23094 8.26333 9.23094 8.26333C9.23094 8.26333 9.23094 8.26333 9.23094 8.26333C9.23094 8.26333 9.23094 8.26333 9.23094 8.26333C9.23093 8.26333 9.23093 8.26333 9.23093 8.26333C9.23093 8.26333 9.23093 8.26333 9.23093 8.26333C9.23093 8.26333 9.23093 8.26333 9.23093 8.26333C9.23093 8.26333 9.23093 8.26333 9.23093 8.26333C9.23093 8.26333 9.23093 8.26333 9.23092 8.26333C9.23092 8.26333 9.23092 8.26333 9.23092 8.26333C9.23092 8.26333 9.23092 8.26333 9.23092 8.26333C9.23092 8.26333 9.23092 8.26333 9.23092 8.26333C9.23092 8.26333 9.23092 8.26333 9.23092 8.26333C9.23092 8.26333 9.23092 8.26333 9.23091 8.26333C9.23091 8.26333 9.23091 8.26333 9.23091 8.26333C9.23091 8.26333 9.23091 8.26333 9.23091 8.26333C9.23091 8.26333 9.23091 8.26333 9.23091 8.26333C9.23091 8.26333 9.23091 8.26333 9.23091 8.26333C9.23091 8.26333 9.23091 8.26333 9.2309 8.26333C9.2309 8.26333 9.2309 8.26333 9.2309 8.26333C9.2309 8.26333 9.2309 8.26333 9.2309 8.26333C9.2309 8.26333 9.2309 8.26333 9.2309 8.26333C9.2309 8.26333 9.2309 8.26333 9.2309 8.26333C9.2309 8.26333 9.2309 8.26333 9.2309 8.26333C9.23089 8.26333 9.23089 8.26333 9.23089 8.26333C9.23089 8.26333 9.23089 8.26333 9.23089 8.26333C9.23089 8.26333 9.23089 8.26333 9.23089 8.26333C9.23089 8.26333 9.23089 8.26333 9.23089 8.26333C9.23089 8.26333 9.23089 8.26333 9.23089 8.26333C9.23088 8.26333 9.23088 8.26333 9.23088 8.26333C9.23088 8.26333 9.23088 8.26333 9.23088 8.26333C9.23088 8.26333 9.23088 8.26333 9.23088 8.26333C9.23088 8.26333 9.23088 8.26333 9.23088 8.26333C9.23088 8.26333 9.23088 8.26333 9.23088 8.26333C9.23088 8.26333 9.23088 8.26333 9.23087 8.26333H9.23087C9.23087 8.26333 9.23087 8.26333 9.23087 8.26333C9.23087 8.26333 9.23087 8.26333 9.23087 8.26333C9.23087 8.26333 9.23087 8.26333 9.23087 8.26333C9.23087 8.26333 9.23087 8.26333 9.23087 8.26333C9.23087 8.26333 9.23086 8.26333 9.23086 8.26333H9.23086C9.23086 8.26333 9.23086 8.26333 9.23086 8.26333C9.23086 8.26333 9.23086 8.26333 9.23086 8.26333C9.23086 8.26333 9.23086 8.26333 9.23086 8.26333C9.23086 8.26333 9.23086 8.26333 9.23085 8.26333H9.23085C9.23085 8.26333 9.23085 8.26333 9.23085 8.26333C9.23085 8.26333 9.23085 8.26333 9.23085 8.26333C9.23085 8.26333 9.23085 8.26333 9.23085 8.26333H9.23085C9.23085 8.26333 9.23085 8.26333 9.23085 8.26333C9.23084 8.26333 9.23084 8.26333 9.23084 8.26333H9.23084C9.23084 8.26333 9.23084 8.26333 9.23084 8.26333C9.23084 8.26333 9.23084 8.26333 9.23084 8.26333H9.23084C9.23084 8.26333 9.23084 8.26333 9.23084 8.26333C9.23083 8.26333 9.23083 8.26333 9.23083 8.26333H9.23083C9.23083 8.26333 9.23083 8.26333 9.23083 8.26333C9.23083 8.26333 9.23083 8.26333 9.23083 8.26333H9.23083C9.23083 8.26333 9.23083 8.26333 9.23083 8.26333H9.23083C9.23082 8.26333 9.23082 8.26333 9.23082 8.26333H9.23082C9.23082 8.26333 9.23082 8.26333 9.23082 8.26333C9.23082 8.26333 9.23082 8.26333 9.23082 8.26333H9.23082C9.23082 8.26333 9.23082 8.26333 9.23082 8.26333H9.23081C9.23081 8.26333 9.23081 8.26333 9.23081 8.26333H9.23081C9.23081 8.26333 9.23081 8.26333 9.23081 8.26333H9.23081H9.23081C9.23081 8.26333 9.23081 8.26333 9.23081 8.26333H9.23081C9.2308 8.26333 9.2308 8.26333 9.2308 8.26333H9.2308C9.2308 8.26333 9.2308 8.26333 9.2308 8.26333H9.2308H9.2308C9.2308 8.26333 9.2308 8.26333 9.2308 8.26333H9.2308C9.23079 8.26333 9.23079 8.26333 9.23079 8.26333C9.23079 8.26333 9.23079 8.26333 9.23079 8.26333H9.23079C9.23079 8.26333 9.23079 8.26333 9.23079 8.26333C9.23079 8.26333 9.23079 8.26333 9.23079 8.26333H9.23079C9.23079 8.26333 9.23079 8.26333 9.23079 8.26333C9.23079 8.26333 9.23079 8.26333 9.23079 8.26333H9.23078C9.23078 8.26333 9.23078 8.26333 9.23078 8.26333C9.23078 8.26333 9.23078 8.26333 9.23078 8.26333H9.23078H9.23078C9.23078 8.26333 9.23078 8.26333 9.23078 8.26333C9.23078 8.26333 9.23078 8.26333 9.23078 8.26333H9.23078H9.23077C9.23077 8.26333 9.23077 8.26333 9.23077 8.26333C9.23077 8.26333 9.23077 8.26333 9.23077 8.26333C9.23077 8.26333 9.23077 8.26333 9.23077 8.26333H9.23077H9.23077C9.23077 8.26333 9.23077 8.26333 9.23077 8.26333C9.23077 8.26333 9.23077 8.26333 9.23077 8.26333C9.23077 8.26333 9.23077 8.26333 9.23077 8.26333C9.23077 8.26333 9.23077 8.26333 9.23076 8.26333C9.23076 8.26333 9.23076 8.26333 9.23076 8.26333H9.23076H9.23076H9.23076C9.23076 8.26333 9.23076 8.26333 9.23076 8.26333C9.23076 8.26333 9.23076 8.26333 9.23076 8.26333C9.23076 8.26333 9.23076 8.26333 9.23076 8.26333C9.23076 8.26333 9.23076 8.26333 9.23076 8.26333C9.23076 8.26333 9.23076 8.26333 9.23075 8.26333C9.23075 8.26333 9.23075 8.26333 9.23075 8.26333C9.23075 8.26333 9.23075 8.26333 9.23075 8.26333C9.23075 8.26333 9.23075 8.26333 9.23075 8.26333H9.23075H9.23075H9.23075H9.23075H9.23075H9.23075H9.23075H9.23074H9.23074H9.23074C9.23074 8.26333 9.23074 8.26333 9.23074 8.26333C9.23074 8.26333 9.23074 8.26333 9.23074 8.26333C9.23074 8.26333 9.23074 8.26333 9.23074 8.26333C9.23074 8.26333 9.23074 8.26333 9.23074 8.26333C9.23074 8.26333 9.23074 8.26333 9.23074 8.26333C9.23074 8.26333 9.23074 8.26333 9.23074 8.26333C9.23074 8.26333 9.23074 8.26333 9.23074 8.26333C9.23073 8.26333 9.23073 8.26333 9.23073 8.26333H9.23073H9.23073H9.23073C9.23073 8.26333 9.23073 8.26333 9.23073 8.26333C9.23073 8.26333 9.23073 8.26333 9.23073 8.26333C9.23073 8.26333 9.23073 8.26333 9.23073 8.26333C9.23073 8.26333 9.23073 8.26333 9.23073 8.26333H9.23073C9.23073 8.26333 9.23073 8.26333 9.23073 8.26333C9.23073 8.26333 9.23073 8.26333 9.23073 8.26333C9.23072 8.26333 9.23072 8.26333 9.23072 8.26333H9.23072C9.23072 8.26333 9.23072 8.26333 9.23072 8.26333C9.23072 8.26333 9.23072 8.26333 9.23072 8.26333C9.23072 8.26333 9.23072 8.26333 9.23072 8.26333H9.23072C9.23072 8.26333 9.23072 8.26333 9.23072 8.26333C9.23072 8.26333 9.23072 8.26333 9.23072 8.26333H9.23072C9.23072 8.26333 9.23072 8.26333 9.23072 8.26333H9.23071C9.23071 8.26333 9.23071 8.26333 9.23071 8.26333C9.23071 8.26333 9.23071 8.26333 9.23071 8.26333H9.23071C9.23071 8.26333 9.23071 8.26333 9.23071 8.26333H9.23071C9.23071 8.26333 9.23071 8.26333 9.23071 8.26333H9.23071C9.23071 8.26333 9.23071 8.26333 9.23071 8.26333C9.23071 8.26333 9.23071 8.26333 9.23071 8.26333H9.23071C9.2307 8.26333 9.2307 8.26333 9.2307 8.26333H9.2307H9.2307C9.2307 8.26333 9.2307 8.26333 9.2307 8.26333C9.2307 8.26333 9.2307 8.26333 9.2307 8.26333H9.2307H9.2307C9.2307 8.26333 9.2307 8.26333 9.2307 8.26333C9.2307 8.26333 9.2307 8.26333 9.2307 8.26333C9.2307 8.26333 9.2307 8.26333 9.2307 8.26333C9.23069 8.26333 9.23069 8.26333 9.23069 8.26333C9.23069 8.26333 9.23069 8.26333 9.23069 8.26333C9.23069 8.26333 9.23069 8.26333 9.23069 8.26333C9.23069 8.26333 9.23069 8.26333 9.23069 8.26333H9.23069C9.23069 8.26333 9.23069 8.26333 9.23069 8.26333C9.23069 8.26333 9.23069 8.26333 9.23069 8.26333C9.23069 8.26333 9.23069 8.26333 9.23069 8.26333C9.23069 8.26333 9.23069 8.26333 9.23069 8.26333C9.23069 8.26333 9.23069 8.26333 9.23069 8.26333C9.23069 8.26333 9.23069 8.26333 9.23069 8.26333H9.23068C9.23068 8.26333 9.23068 8.26333 9.23068 8.26333C9.23068 8.26333 9.23068 8.26333 9.23068 8.26333C9.23068 8.26333 9.23068 8.26333 9.23068 8.26333C9.23068 8.26333 9.23068 8.26333 9.23068 8.26333H9.23068C9.23068 8.26333 9.23068 8.26333 9.23068 8.26333H9.23068C9.23068 8.26333 9.23068 8.26333 9.23068 8.26333C9.23068 8.26333 9.23068 8.26333 9.23068 8.26333H9.23067C9.23067 8.26333 9.23067 8.26333 9.23067 8.26333C9.23067 8.26333 9.23067 8.26333 9.23067 8.26333C9.23067 8.26333 9.23067 8.26333 9.23067 8.26333C9.23067 8.26333 9.23067 8.26333 9.23067 8.26333C9.23067 8.26333 9.23067 8.26333 9.23067 8.26333C9.23067 8.26333 9.23067 8.26333 9.23067 8.26333H9.23067C9.23067 8.26333 9.23067 8.26333 9.23067 8.26333C9.23067 8.26333 9.23067 8.26333 9.23067 8.36333ZM9.23133 8.26333H9.23067V8.46333H9.23133V8.26333ZM9.19261 8.45581C15.6616 11.1179 17.2266 12.74 17.2417 12.7558L17.3863 12.6176C17.344 12.5733 15.7504 10.9381 9.26872 8.27086L9.19261 8.45581ZM17.2449 12.759C17.2607 12.774 18.8828 14.3397 21.5449 20.8081L21.7298 20.7319C19.0625 14.251 17.4273 12.6566 17.3831 12.6144L17.2449 12.759ZM21.708 20.6993L21.7074 20.6986L21.566 20.84L21.5666 20.8407L21.708 20.6993ZM21.6367 20.8693C21.6193 20.8693 21.5997 20.8647 21.5816 20.8526C21.5641 20.841 21.5537 20.8262 21.5478 20.8144C21.5421 20.803 21.5398 20.7928 21.5387 20.7863C21.5381 20.7828 21.5378 20.7797 21.5376 20.777C21.5375 20.7757 21.5374 20.7744 21.5374 20.7733C21.5374 20.7727 21.5374 20.7721 21.5373 20.7716C21.5373 20.7713 21.5373 20.771 21.5373 20.7707C21.5373 20.7706 21.5373 20.7705 21.5373 20.7703C21.5373 20.7703 21.5373 20.7702 21.5373 20.7701C21.5373 20.7701 21.5373 20.7701 21.5373 20.77C21.5373 20.77 21.5373 20.7699 21.6373 20.77C21.7373 20.7701 21.7373 20.77 21.7373 20.77C21.7373 20.7699 21.7373 20.7699 21.7373 20.7699C21.7373 20.7698 21.7373 20.7697 21.7373 20.7697C21.7373 20.7695 21.7373 20.7694 21.7373 20.7693C21.7373 20.769 21.7373 20.7687 21.7373 20.7684C21.7373 20.7679 21.7373 20.7673 21.7373 20.7667C21.7372 20.7655 21.7372 20.7643 21.7371 20.7629C21.7369 20.7602 21.7366 20.757 21.736 20.7535C21.7349 20.7469 21.7325 20.7365 21.7267 20.725C21.7207 20.713 21.7102 20.698 21.6925 20.6862C21.6742 20.674 21.6543 20.6693 21.6367 20.6693V20.8693ZM21.708 20.6993L21.6787 20.67L21.5373 20.8114L21.5666 20.8407L21.708 20.6993ZM21.6771 20.6684L21.6618 20.6537L21.5235 20.7983L21.5389 20.8129L21.6771 20.6684ZM21.5028 20.77C21.5068 20.7779 21.5102 20.7877 21.5144 20.8021C21.5177 20.8135 21.5237 20.8363 21.5296 20.8544L21.7197 20.7923C21.715 20.7777 21.7126 20.7675 21.7064 20.7462C21.7011 20.728 21.6939 20.7054 21.6825 20.682L21.5028 20.77ZM21.5294 20.8538C21.5585 20.9445 21.5688 21.0339 21.5541 21.1191L21.7512 21.1529C21.7726 21.0288 21.7562 20.9062 21.7199 20.7928L21.5294 20.8538ZM16.4347 13.5513C16.4084 13.525 15.0658 12.2482 10.2795 10.1484L10.1992 10.3316C12.5859 11.3787 14.1092 12.2185 15.0362 12.7971C15.964 13.3761 16.2933 13.6927 16.2933 13.6927L16.4347 13.5513ZM10.1478 10.2802C12.2479 15.0672 13.5264 16.4095 13.5644 16.4485L13.7076 16.3088C13.6923 16.2931 12.4255 14.9742 10.3309 10.1998L10.1478 10.2802ZM13.5653 16.4494C13.5916 16.4757 14.9341 17.7531 19.7205 19.8522L19.8008 19.6691C17.4141 18.6223 15.8908 17.7825 14.9638 17.2038C14.036 16.6247 13.7067 16.3079 13.7067 16.308L13.5653 16.4494ZM19.8522 19.7205C17.7521 14.9328 16.4736 13.5911 16.4356 13.5522L16.2924 13.6918C16.3077 13.7075 17.5745 15.0258 19.6691 19.8008L19.8522 19.7205ZM15 14.4333C15.3134 14.4333 15.5667 14.6866 15.5667 15H15.7667C15.7667 14.5761 15.4239 14.2333 15 14.2333V14.4333ZM15.5667 15C15.5667 15.3134 15.3134 15.5667 15 15.5667V15.7667C15.4239 15.7667 15.7667 15.4239 15.7667 15H15.5667ZM15 15.5667C14.6866 15.5667 14.4333 15.3134 14.4333 15H14.2333C14.2333 15.4239 14.5761 15.7667 15 15.7667V15.5667ZM14.4333 15C14.4333 14.6866 14.6866 14.4333 15 14.4333V14.2333C14.5761 14.2333 14.2333 14.5761 14.2333 15H14.4333ZM15 5.56667C14.6866 5.56667 14.4333 5.31284 14.4333 5H14.2333C14.2333 5.42316 14.576 5.76667 15 5.76667V5.56667ZM14.4333 5V4.33333H14.2333V5H14.4333ZM14.4333 4.33333C14.4333 4.0205 14.6866 3.76667 15 3.76667V3.56667C14.576 3.56667 14.2333 3.91017 14.2333 4.33333H14.4333ZM15 3.76667C15.3134 3.76667 15.5667 4.0205 15.5667 4.33333H15.7667C15.7667 3.91017 15.424 3.56667 15 3.56667V3.76667ZM15.5667 4.33333V5H15.7667V4.33333H15.5667ZM15.5667 5C15.5667 5.31284 15.3134 5.56667 15 5.56667V5.76667C15.424 5.76667 15.7667 5.42316 15.7667 5H15.5667ZM15 24.4333C15.3134 24.4333 15.5667 24.6866 15.5667 25H15.7667C15.7667 24.5761 15.4239 24.2333 15 24.2333V24.4333ZM15.5667 25V25.6667H15.7667V25H15.5667ZM15.5667 25.6667C15.5667 25.9801 15.3134 26.2333 15 26.2333V26.4333C15.4239 26.4333 15.7667 26.0906 15.7667 25.6667H15.5667ZM15 26.2333C14.6866 26.2333 14.4333 25.9801 14.4333 25.6667H14.2333C14.2333 26.0906 14.5761 26.4333 15 26.4333V26.2333ZM14.4333 25.6667V25H14.2333V25.6667H14.4333ZM14.4333 25C14.4333 24.6866 14.6866 24.4333 15 24.4333V24.2333C14.5761 24.2333 14.2333 24.5761 14.2333 25H14.4333ZM5 15.5667H4.33333V15.7667H5V15.5667ZM4.33333 15.5667C4.0199 15.5667 3.76667 15.3134 3.76667 15H3.56667C3.56667 15.4239 3.90944 15.7667 4.33333 15.7667V15.5667ZM3.76667 15C3.76667 14.6866 4.0199 14.4333 4.33333 14.4333V14.2333C3.90944 14.2333 3.56667 14.5761 3.56667 15H3.76667ZM4.33333 14.4333H5V14.2333H4.33333V14.4333ZM5 14.4333C5.31344 14.4333 5.56667 14.6866 5.56667 15H5.76667C5.76667 14.5761 5.4239 14.2333 5 14.2333V14.4333ZM5.56667 15C5.56667 15.3134 5.31344 15.5667 5 15.5667V15.7667C5.4239 15.7667 5.76667 15.4239 5.76667 15H5.56667Z" fill="#BC3331" mask="url(#path-1-outside-1)"/>
</svg>
