<svg width="31" height="28" viewBox="0 0 31 28" fill="none" xmlns="http://www.w3.org/2000/svg">
<path d="M19.7909 17.7341C19.859 17.6758 19.9055 17.596 19.9356 17.5175L21.1785 14.0452C22.1847 14.0572 23.2291 13.7619 24.1563 13.2016C26.5092 11.7797 27.4637 9.04142 26.2897 7.09856C25.1156 5.15571 22.2437 4.72111 19.8971 6.13914C18.9257 6.72617 18.1623 7.55777 17.709 8.50341L14.1973 8.00763C14.1101 7.99147 14.0153 8.00567 13.9383 8.03499L1.17618 12.5953C1.02216 12.654 0.896137 12.7732 0.842268 12.9263C0.788398 13.0794 0.802872 13.2601 0.886734 13.3989L8.9756 26.7844C9.13189 27.043 9.47597 27.1279 9.73459 26.9716C9.77875 26.9449 9.81909 26.9119 9.84932 26.8764L19.7909 17.7341ZM20.4689 7.08533C22.2982 5.97988 24.4883 6.24094 25.346 7.66023C26.2036 9.07952 25.4164 11.1398 23.587 12.2452C22.9563 12.6264 22.2605 12.8574 21.5807 12.9152L22.6695 9.87183C22.7233 9.71871 22.7089 9.53801 22.625 9.39923C22.5411 9.26046 22.3942 9.1598 22.2273 9.1401L18.8762 8.66783C19.2395 8.04353 19.7876 7.49702 20.4689 7.08533ZM2.18363 13.4074L14.1806 9.12L17.9667 9.65662C17.9667 9.65662 17.9667 9.65662 17.9768 9.65912L21.4051 10.1451L20.4378 12.848C20.3303 12.8269 20.2316 12.7918 20.1304 12.7668C20.3372 12.2113 20.2985 11.563 19.9669 11.0142C19.3913 10.0617 18.1427 9.74834 17.1839 10.3278C16.2251 10.9072 15.9181 12.1519 16.4975 13.1107C17.0769 14.0695 18.3216 14.3765 19.2804 13.7971C19.3372 13.7628 19.3877 13.7323 19.4406 13.6917C19.6394 13.7783 19.8469 13.851 20.0594 13.9034L18.9468 17.0214L9.57242 25.6487L2.17732 13.4112L2.18363 13.4074ZM18.1699 11.9451C17.9657 12.1202 17.9236 12.4211 18.0609 12.6482C18.0761 12.6734 18.0952 12.705 18.1167 12.7264C18.1928 12.8096 18.2651 12.8865 18.3475 12.9658C17.9975 13.0137 17.6406 12.8505 17.4462 12.5288C17.1832 12.0936 17.3229 11.5268 17.7582 11.2638C18.1934 11.0008 18.7601 11.1406 19.0232 11.5758C19.1375 11.7651 19.1749 11.9836 19.1414 12.1847C19.0767 12.1204 19.0159 12.0625 18.9575 11.9944C18.7444 11.7701 18.3955 11.7485 18.1699 11.9451Z" fill="#BC3331"/>
<path d="M12.878 12.8351L15.0546 16.437C15.2109 16.6956 15.5549 16.7804 15.8136 16.6242C16.0722 16.4679 16.1571 16.1238 16.0008 15.8652L13.8242 12.2633C13.6679 12.0047 13.3238 11.9198 13.0652 12.0761C12.8065 12.2324 12.7179 12.5702 12.878 12.8351Z" fill="#BC3331"/>
<path d="M9.17405 15.1422C9.68104 15.9812 10.7841 16.2533 11.6231 15.7463C12.462 15.2393 12.7341 14.1362 12.2271 13.2973C11.7201 12.4583 10.6171 12.1862 9.7781 12.6932C8.93914 13.2002 8.66707 14.3033 9.17405 15.1422ZM11.2746 13.8729C11.469 14.1946 11.3667 14.6095 11.045 14.8039C10.7233 14.9983 10.3083 14.896 10.1139 14.5743C9.91953 14.2526 10.0219 13.8376 10.3436 13.6432C10.6653 13.4488 11.084 13.5575 11.2746 13.8729Z" fill="#BC3331"/>
<path d="M10.636 19.0296C10.129 18.1906 9.02593 17.9186 8.18697 18.4255C7.34801 18.9325 7.07595 20.0356 7.58293 20.8745C8.08991 21.7135 9.19298 21.9856 10.0319 21.4786C10.8709 20.9716 11.143 19.8685 10.636 19.0296ZM8.53543 20.2989C8.34102 19.9772 8.44336 19.5623 8.76507 19.3679C9.08677 19.1735 9.50169 19.2758 9.6961 19.5976C9.8905 19.9193 9.78816 20.3342 9.46646 20.5286C9.14475 20.723 8.72603 20.6143 8.53543 20.2989Z" fill="#BC3331"/>
<path d="M14.3391 18.075C14.4115 17.7815 14.2285 17.4787 13.935 17.4063L6.3856 15.5443C6.09212 15.4719 5.78934 15.6548 5.71696 15.9483C5.67951 16.1001 5.70778 16.2467 5.78021 16.3665C5.85264 16.4864 5.96922 16.5795 6.12102 16.617L13.6704 18.479C13.9702 18.5476 14.2667 18.3684 14.3391 18.075Z" fill="#BC3331"/>
</svg>
