<svg width="24" height="24" viewBox="0 0 24 24" fill="none" xmlns="http://www.w3.org/2000/svg">
<path d="M16.6308 7.2877L16.7645 7.33696L16.8548 7.22669C17.1152 6.90842 17.4426 6.65142 17.8136 6.47398C18.1844 6.29664 18.5897 6.20311 19.0007 6.20003C19.5542 6.20018 20.0953 6.36438 20.5556 6.67192C21.016 6.97959 21.3749 7.41689 21.5868 7.92852C21.7988 8.44015 21.8542 9.00314 21.7462 9.54629C21.6381 10.0894 21.3715 10.5883 20.9799 10.9799C20.5883 11.3715 20.0894 11.6382 19.5462 11.7462C19.0031 11.8543 18.4401 11.7988 17.9285 11.5869C17.4168 11.375 16.9795 11.0161 16.6719 10.5556C16.3642 10.0952 16.2 9.55382 16.2 9.00003V8.86058L16.0691 8.81236L10.3691 6.71236L10.2335 6.66239L10.1435 6.7755C9.70105 7.33153 9.06378 7.69854 8.36081 7.80217L8.22313 7.82247L8.19431 7.95862L6.41431 16.3686L6.38506 16.5068L6.50554 16.5806C7.06734 16.9246 7.48987 17.4556 7.69884 18.0803C7.90781 18.705 7.88983 19.3834 7.64806 19.9962C7.40629 20.609 6.95622 21.1169 6.37699 21.4306C5.79777 21.7443 5.12647 21.8438 4.48115 21.7115C3.83584 21.5792 3.25782 21.2236 2.84876 20.7073C2.43969 20.191 2.22577 19.5469 2.2446 18.8885C2.26344 18.23 2.51383 17.5993 2.95174 17.1072C3.38966 16.6151 3.98705 16.2931 4.63888 16.1979L4.77626 16.1779L4.8055 16.0421L6.6255 7.59214L6.65531 7.45371L6.53465 7.37961C6.11836 7.12394 5.7762 6.76381 5.54217 6.33498C5.30814 5.90615 5.19039 5.42355 5.2006 4.93513C5.21081 4.4467 5.34863 3.96945 5.60038 3.55078C5.85213 3.1321 6.20903 2.78658 6.63565 2.54854C7.06226 2.3105 7.54373 2.18821 8.03223 2.19384C8.52073 2.19946 8.99925 2.3328 9.42027 2.58061C9.84129 2.82841 10.1901 3.18206 10.4322 3.60642C10.6742 4.03078 10.801 4.51108 10.8 4.99961L10.7997 5.13938L10.9308 5.1877L16.6308 7.2877ZM4.33329 19.9978C4.53063 20.1297 4.76264 20.2 4.99998 20.2C5.31824 20.2 5.62346 20.0736 5.84851 19.8486C6.07355 19.6235 6.19998 19.3183 6.19998 19C6.19998 18.7627 6.1296 18.5307 5.99774 18.3333C5.86588 18.136 5.67847 17.9822 5.4592 17.8914C5.23993 17.8006 4.99865 17.7768 4.76587 17.8231C4.53309 17.8694 4.31927 17.9837 4.15145 18.1515C3.98363 18.3193 3.86934 18.5331 3.82304 18.7659C3.77673 18.9987 3.8005 19.24 3.89132 19.4593C3.98215 19.6785 4.13596 19.8659 4.33329 19.9978ZM7.33329 5.9978C7.53063 6.12965 7.76264 6.20003 7.99998 6.20003C8.31824 6.20003 8.62346 6.0736 8.84851 5.84856C9.07355 5.62352 9.19998 5.31829 9.19998 5.00003C9.19998 4.76269 9.1296 4.53069 8.99774 4.33335C8.86588 4.13601 8.67847 3.9822 8.4592 3.89138C8.23993 3.80055 7.99865 3.77679 7.76587 3.82309C7.53309 3.86939 7.31927 3.98368 7.15145 4.1515C6.98363 4.31933 6.86934 4.53315 6.82304 4.76592C6.77673 4.9987 6.8005 5.23998 6.89132 5.45925C6.98215 5.67852 7.13596 5.86594 7.33329 5.9978ZM18.3333 9.9978C18.5306 10.1297 18.7626 10.2 19 10.2C19.3182 10.2 19.6235 10.0736 19.8485 9.84856C20.0736 9.62352 20.2 9.31829 20.2 9.00003C20.2 8.7627 20.1296 8.53069 19.9977 8.33335C19.8659 8.13601 19.6785 7.9822 19.4592 7.89138C19.2399 7.80055 18.9986 7.77679 18.7659 7.82309C18.5331 7.86939 18.3193 7.98368 18.1514 8.1515C17.9836 8.31933 17.8693 8.53315 17.823 8.76592C17.7767 8.9987 17.8005 9.23998 17.8913 9.45925C17.9821 9.67852 18.136 9.86594 18.3333 9.9978Z" fill="#BC3331" stroke="white" stroke-width="0.4"/>
<path d="M14.2 21V20.8H14H13C12.7878 20.8 12.5843 20.7157 12.4343 20.5657C12.2843 20.4157 12.2 20.2122 12.2 20C12.2 19.7878 12.2843 19.5843 12.4343 19.4343C12.5843 19.2843 12.7878 19.2 13 19.2H15.49H15.51V19.1997C15.6884 19.1946 15.8584 19.1215 15.985 18.995C16.1163 18.8637 16.19 18.6857 16.19 18.5C16.19 18.3143 16.1163 18.1363 15.985 18.005C15.8537 17.8737 15.6757 17.8 15.49 17.8L14.4906 17.8C14.4905 17.8 14.4905 17.8 14.4904 17.8C13.9209 17.7983 13.3723 17.5853 12.9507 17.2023C12.5292 16.8192 12.2647 16.2934 12.2086 15.7266C12.1525 15.1598 12.3087 14.5923 12.647 14.134C12.9853 13.6758 13.4816 13.3593 14.0398 13.246L14.2 13.2135V13.05V13C14.2 12.7878 14.2843 12.5843 14.4343 12.4343C14.5843 12.2843 14.7878 12.2 15 12.2C15.2122 12.2 15.4157 12.2843 15.5657 12.4343C15.7157 12.5843 15.8 12.7878 15.8 13V13.2H16H17C17.2122 13.2 17.4157 13.2843 17.5657 13.4343C17.7157 13.5843 17.8 13.7878 17.8 14C17.8 14.2122 17.7157 14.4157 17.5657 14.5657C17.4157 14.7157 17.2122 14.8 17 14.8H14.51C14.3244 14.8 14.1463 14.8737 14.015 15.005C13.8838 15.1363 13.81 15.3143 13.81 15.5C13.81 15.6857 13.8838 15.8637 14.015 15.995C14.1463 16.1263 14.3244 16.2 14.51 16.2H15.51H15.5198L15.5295 16.199C16.1398 16.1392 16.7488 16.3243 17.2226 16.7135C17.6964 17.1028 17.9962 17.6643 18.056 18.2745C18.1158 18.8848 17.9307 19.4938 17.5415 19.9676C17.1522 20.4414 16.5907 20.7411 15.9805 20.801L15.8 20.8186V21C15.8 21.2122 15.7157 21.4157 15.5657 21.5657C15.4157 21.7157 15.2122 21.8 15 21.8C14.7878 21.8 14.5843 21.7157 14.4343 21.5657C14.2843 21.4157 14.2 21.2122 14.2 21Z" fill="#BC3331" stroke="white" stroke-width="0.4"/>
</svg>
