<svg width="24" height="30" viewBox="0 0 24 30" fill="none" xmlns="http://www.w3.org/2000/svg">
<path d="M23.0685 5.76542L23.0682 5.76513L17.9167 1.00001V0.90001H17.9164H2.75C2.25935 0.90001 1.78879 1.09492 1.44185 1.44186C1.09491 1.7888 0.9 2.25936 0.9 2.75001V27.25C0.9 27.7407 1.09491 28.2112 1.44185 28.5581C1.78879 28.9051 2.25935 29.1 2.75 29.1H21.4167C21.9073 29.1 22.3779 28.9051 22.7248 28.5581C23.0718 28.2112 23.2667 27.7407 23.2667 27.25L23.2667 6.25058L23.1667 6.25001H23.2667V6.25024C23.2671 6.16043 23.2499 6.0714 23.2159 5.98825L23.1234 6.02606L23.2159 5.98825C23.1819 5.90499 23.1318 5.82927 23.0685 5.76542ZM18.6 5.08334V3.2306L20.9361 5.56668H19.0833C18.9551 5.56668 18.8322 5.51575 18.7416 5.42511C18.6509 5.33447 18.6 5.21153 18.6 5.08334ZM21.9 27.25C21.9 27.3782 21.8491 27.5011 21.7584 27.5918C21.6678 27.6824 21.5449 27.7333 21.4167 27.7333H2.75C2.62181 27.7333 2.49887 27.6824 2.40823 27.5918C2.31759 27.5011 2.26667 27.3782 2.26667 27.25V2.75001C2.26667 2.62182 2.31759 2.49888 2.40823 2.40824C2.49887 2.3176 2.62181 2.26668 2.75 2.26668H17.2333V5.08334C17.2333 5.57399 17.4282 6.04455 17.7752 6.39149C18.1221 6.73843 18.5927 6.93334 19.0833 6.93334H21.9V27.25Z" fill="#BC3331" stroke="#BC3331" stroke-width="0.2"/>
<path class="stroke" d="M15.4833 11.983H15.5833H19.0833C19.2646 11.983 19.4384 12.055 19.5665 12.1832C19.6947 12.3113 19.7667 12.4851 19.7667 12.6663V16.1663V16.2663H19.6667H18.5H18.4V16.1663V14.3138L14.3182 18.4012L14.3179 18.4015C14.2541 18.4648 14.1783 18.5149 14.0951 18.5489C14.0119 18.5829 13.9228 18.6002 13.833 18.5997M15.4833 11.983L13.8333 18.4997M15.4833 11.983V12.083V13.2497V13.3497H15.5833H17.4361L15.4833 11.983ZM13.833 18.5997C13.8329 18.5997 13.8328 18.5997 13.8327 18.5997L13.8333 18.4997M13.833 18.5997H13.8333V18.4997M13.833 18.5997H8.86386M13.8333 18.4997H8.82249M8.86386 18.5997L8.89314 18.5704L8.82249 18.4997M8.86386 18.5997L5.56231 21.8954L5.4916 21.966L5.42095 21.8954L4.59845 21.0729L4.52774 21.0022L4.59845 20.9315L8.09845 17.4315L8.09874 17.4312C8.16259 17.3678 8.23831 17.3177 8.32157 17.2837C8.40475 17.2498 8.49381 17.2325 8.58365 17.233M8.86386 18.5997H8.82249V18.4997M8.82249 18.4997L8.58365 17.233M8.58365 17.233C8.58373 17.233 8.58382 17.233 8.58391 17.233L8.58333 17.333V17.233H8.58365Z" fill="#BC3331" stroke="#BC3331" stroke-width="0.2"/>
</svg>
