<svg width="33" height="28" viewBox="0 0 33 28" fill="none" xmlns="http://www.w3.org/2000/svg">
<path d="M20.6507 -0.000934872C20.1851 -0.0132469 19.7998 0.303777 19.7999 0.699065V16.903L21.4499 16.203V3.66313L30.8408 19.5991H26.3999V20.9991H32.1749C32.6183 20.9993 32.9826 20.7023 32.9999 20.3264C33.0049 20.209 32.975 20.0924 32.9129 19.9873L21.3629 0.387346C21.2278 0.15657 20.9543 0.00742313 20.6507 -0.000934872ZM16.4999 6.99907C10.1308 6.99907 4.94994 11.395 4.94994 16.7991C4.94926 16.8155 4.94926 16.8319 4.94994 16.8483V18.1991L1.64994 15.3991V17.4991L5.77494 20.9991L9.89994 17.4991V15.3991L6.59994 18.1991V16.7991C6.59994 12.1516 11.0226 8.39907 16.4999 8.39907C16.6093 8.40038 16.7178 8.38324 16.8193 8.34865C16.9207 8.31406 17.013 8.26271 17.0909 8.19758C17.1687 8.13245 17.2306 8.05484 17.2728 7.96926C17.315 7.88368 17.3367 7.79183 17.3367 7.69907C17.3367 7.6063 17.315 7.51446 17.2728 7.42888C17.2306 7.3433 17.1687 7.26569 17.0909 7.20055C17.013 7.13542 16.9207 7.08407 16.8193 7.04948C16.7178 7.01489 16.6093 6.99775 16.4999 6.99907ZM23.9765 16.8018C23.8391 16.7945 23.6946 16.8151 23.5576 16.8729L0.457561 26.6729C0.179506 26.7902 0.00258401 27.0301 -5.59896e-05 27.2936C-0.00352099 27.6823 0.3668 27.999 0.824944 27.9991H23.9249C24.3806 27.999 24.7499 27.6856 24.7499 27.2991V17.4991C24.7495 17.1095 24.3888 16.8237 23.9765 16.8018ZM23.0999 18.6311V26.5991H4.3183L23.0999 18.6311Z" fill="#BC3331"/>
</svg>
