<?xml version="1.0" standalone="no"?>
<!DOCTYPE svg PUBLIC "-//W3C//DTD SVG 20010904//EN"
 "http://www.w3.org/TR/2001/REC-SVG-20010904/DTD/svg10.dtd">
<svg version="1.0" xmlns="http://www.w3.org/2000/svg"
 width="319.000000pt" height="319.000000pt" viewBox="0 0 319.000000 319.000000"
 preserveAspectRatio="xMidYMid meet">
<metadata>
Created by potrace 1.11, written by Peter Selinger 2001-2013
</metadata>
<g transform="translate(0.000000,319.000000) scale(0.100000,-0.100000)"
fill="#000000" stroke="none">
<path d="M1351 3175 c70 -132 157 -363 188 -500 67 -296 48 -521 -58 -675 -32
-46 -89 -99 -125 -115 -62 -27 -128 32 -197 173 -19 39 -37 72 -41 72 -5 0 -8
-13 -8 -29 0 -50 -47 -215 -83 -293 -49 -106 -137 -231 -250 -353 -42 -45
-146 -184 -180 -240 -32 -54 -51 -99 -85 -202 -16 -51 -8 -249 12 -308 27 -76
46 -115 88 -177 41 -62 152 -178 214 -224 22 -16 41 -31 44 -34 19 -21 114
-74 178 -100 42 -17 104 -45 137 -62 l60 -30 -71 73 c-179 187 -255 373 -249
612 3 118 6 133 40 252 26 88 102 265 114 265 4 0 12 -40 19 -89 21 -158 85
-296 189 -410 76 -85 177 -149 305 -196 181 -66 288 -126 354 -197 94 -102 82
-222 -35 -331 -27 -26 -49 -47 -48 -47 6 0 193 61 212 69 234 98 347 166 454
272 123 121 173 243 166 401 -12 255 -195 568 -479 820 l-68 61 26 -50 c99
-197 124 -319 85 -429 -43 -125 -153 -219 -274 -231 -68 -7 -117 10 -161 55
-44 45 -61 81 -78 163 -24 115 -12 200 60 409 80 232 89 280 89 470 -1 290
-53 457 -243 770 -111 183 -167 263 -224 322 -47 47 -85 79 -77 63z"/>
</g>
</svg>
